<?xml version="1.0" encoding="UTF-8" standalone="no"?>
<!DOCTYPE svg PUBLIC "-//W3C//DTD SVG 1.1//EN" "http://www.w3.org/Graphics/SVG/1.1/DTD/svg11.dtd">
<svg width="100%" height="100%" viewBox="0 0 4350 1221" version="1.1" xmlns="http://www.w3.org/2000/svg" xmlns:xlink="http://www.w3.org/1999/xlink" xml:space="preserve" xmlns:serif="http://www.serif.com/" style="fill-rule:evenodd;clip-rule:evenodd;stroke-linejoin:round;stroke-miterlimit:2;">
    <g transform="matrix(4.16667,0,0,4.16667,0,0)">
        <g transform="matrix(0.296264,0,0,0.296264,305.236,21.4764)">
            <g>
                <path d="M438.205,167.763C452.525,142.879 477.269,122.176 500.577,106.292C553.952,69.921 623.154,44.922 688.508,47.74C749.894,50.378 810.621,85.627 824.765,149.049C828.803,167.138 828.337,182.984 826.476,201.482C821.286,253.022 790.44,298.66 755.141,334.738C691.959,399.319 610.626,442.459 545.035,504.479C498.734,548.256 454.045,603.646 463.682,671.364C471.75,728.055 526.91,758.472 578.564,765.598C594.255,767.765 609.711,768.135 625.467,766.528C720.924,756.776 787.347,671.899 831.235,594.429C804.572,649.182 774.372,704.254 728.192,745.073C671.803,794.906 590.115,808.827 519.365,785.434C486.728,774.636 455.662,754.278 437.999,724.065C420.486,754.023 389.311,775.184 356.635,785.434C335.817,791.948 315.198,795.122 293.366,795.39C270.548,795.671 248.671,792.943 226.799,786.314C177.72,771.437 134.904,733.116 103.099,694.196C78.545,664.149 61.632,629.066 44.765,594.429C79.06,654.97 122.415,716.479 186.125,748.579C229.067,770.213 278.786,772.303 324.928,760.065C359.676,750.836 388.885,730.872 404.096,697.319C407.842,689.046 410.536,680.262 412.318,671.364C425.501,605.571 374.861,546.063 330.965,504.479C317.211,491.45 302.872,479.021 288.17,467.076C273.016,454.761 257.09,443.428 241.45,431.738C161.775,372.179 64.003,309.076 48.889,201.494C47.556,191.997 46.644,182.385 46.954,172.798C49.096,106.521 105.54,55.898 169.782,51.526C243.187,46.541 294.749,64.146 358.009,99.867C385.199,115.215 421.338,141.323 438.205,167.763ZM437.999,558.135C476.306,481.213 549.219,434.619 620.202,391.059C689.679,348.416 769.778,307.457 793.014,222.631C798.514,202.54 802.202,180.868 798.526,160.101C790.868,116.834 756.253,82.631 712.647,76.512C691.309,73.516 668.74,76.92 648.106,82.402C577.075,101.307 518.942,147.443 477.999,207.779C460.116,234.142 445.722,263.488 438.614,294.67L438.509,299.948C438.374,299.272 438.236,298.597 438.098,297.921L437.999,297.462C437.825,298.291 437.654,299.119 437.491,299.948C437.456,298.189 437.422,296.442 437.389,294.683C425.907,244.315 397.731,204.745 364.342,166.195C329.698,126.191 282.267,95.902 230.859,83.269C172.467,68.901 98.25,80.362 76.058,144.408C72.295,155.27 70.446,166.807 70.27,178.28C70.099,189.511 71.72,202.782 74.895,213.567C94.984,281.769 151.736,331.092 210.314,367.118C232.078,380.503 254.991,391.938 276.968,404.967C341.707,443.364 403.707,489.27 437.999,558.135Z" style="fill:rgb(64,64,64);fill-rule:nonzero;"/>
            </g>
        </g>
        <g transform="matrix(1,0,0,1,0,235.482)">
            <g transform="matrix(150,0,0,150,0,0)">
                <path d="M0.385,-0.563C0.384,-0.56 0.384,-0.558 0.385,-0.557C0.386,-0.556 0.386,-0.554 0.385,-0.553C0.383,-0.552 0.38,-0.551 0.375,-0.551C0.37,-0.55 0.365,-0.55 0.362,-0.549C0.357,-0.548 0.353,-0.547 0.348,-0.548C0.343,-0.548 0.338,-0.55 0.333,-0.553C0.325,-0.557 0.315,-0.561 0.304,-0.565C0.292,-0.568 0.279,-0.57 0.266,-0.57C0.249,-0.57 0.23,-0.568 0.211,-0.565C0.192,-0.561 0.173,-0.556 0.156,-0.55C0.138,-0.543 0.122,-0.535 0.109,-0.526C0.095,-0.517 0.085,-0.506 0.079,-0.495C0.075,-0.486 0.073,-0.477 0.074,-0.468C0.075,-0.458 0.077,-0.449 0.081,-0.44C0.085,-0.431 0.09,-0.424 0.096,-0.417C0.101,-0.409 0.107,-0.405 0.112,-0.402C0.129,-0.393 0.147,-0.388 0.168,-0.385C0.188,-0.382 0.209,-0.381 0.231,-0.38C0.252,-0.379 0.274,-0.378 0.295,-0.377C0.316,-0.376 0.336,-0.372 0.354,-0.367C0.363,-0.364 0.372,-0.361 0.381,-0.359C0.389,-0.357 0.396,-0.354 0.403,-0.35C0.41,-0.347 0.416,-0.342 0.422,-0.336C0.427,-0.329 0.432,-0.32 0.436,-0.308C0.442,-0.283 0.441,-0.258 0.432,-0.234C0.423,-0.209 0.409,-0.188 0.389,-0.169C0.369,-0.15 0.346,-0.134 0.321,-0.123C0.301,-0.114 0.281,-0.109 0.26,-0.106C0.238,-0.102 0.218,-0.103 0.199,-0.107C0.179,-0.111 0.161,-0.119 0.145,-0.13C0.128,-0.141 0.115,-0.157 0.105,-0.177C0.099,-0.19 0.096,-0.205 0.096,-0.223C0.095,-0.225 0.095,-0.227 0.096,-0.229C0.097,-0.234 0.102,-0.236 0.109,-0.236C0.112,-0.237 0.115,-0.236 0.119,-0.234C0.124,-0.231 0.127,-0.229 0.129,-0.228C0.134,-0.227 0.14,-0.224 0.145,-0.218C0.15,-0.211 0.154,-0.206 0.159,-0.202C0.176,-0.185 0.195,-0.174 0.216,-0.171C0.236,-0.167 0.257,-0.167 0.277,-0.171C0.296,-0.174 0.314,-0.18 0.331,-0.188C0.348,-0.196 0.36,-0.203 0.368,-0.21C0.373,-0.214 0.378,-0.219 0.384,-0.225C0.389,-0.23 0.395,-0.236 0.4,-0.244C0.405,-0.251 0.41,-0.258 0.413,-0.266C0.417,-0.274 0.419,-0.282 0.419,-0.291C0.417,-0.299 0.412,-0.305 0.403,-0.31C0.394,-0.314 0.383,-0.317 0.37,-0.32C0.347,-0.324 0.324,-0.326 0.301,-0.327C0.278,-0.327 0.256,-0.327 0.234,-0.326C0.212,-0.325 0.19,-0.325 0.169,-0.325C0.148,-0.325 0.127,-0.327 0.107,-0.332C0.101,-0.333 0.095,-0.336 0.09,-0.339C0.084,-0.342 0.078,-0.345 0.073,-0.348C0.068,-0.351 0.064,-0.356 0.061,-0.361C0.058,-0.366 0.055,-0.372 0.052,-0.378C0.049,-0.384 0.046,-0.39 0.043,-0.397C0.04,-0.403 0.037,-0.41 0.036,-0.417C0.033,-0.438 0.033,-0.46 0.037,-0.483C0.04,-0.506 0.049,-0.527 0.062,-0.546C0.073,-0.562 0.087,-0.576 0.106,-0.588C0.124,-0.599 0.145,-0.608 0.168,-0.615C0.191,-0.621 0.215,-0.624 0.241,-0.624C0.267,-0.623 0.294,-0.619 0.321,-0.611L0.345,-0.6C0.354,-0.595 0.363,-0.59 0.37,-0.583C0.377,-0.576 0.382,-0.57 0.385,-0.563Z" style="fill:rgb(64,64,64);fill-rule:nonzero;"/>
            </g>
            <g transform="matrix(150,0,0,150,70.5,0)">
                <path d="M0.389,-0.391C0.39,-0.39 0.391,-0.389 0.392,-0.389C0.393,-0.389 0.393,-0.388 0.393,-0.387C0.392,-0.386 0.391,-0.384 0.389,-0.383C0.386,-0.381 0.382,-0.38 0.376,-0.379L0.36,-0.372C0.342,-0.368 0.321,-0.364 0.297,-0.361C0.272,-0.358 0.247,-0.355 0.221,-0.352C0.22,-0.329 0.219,-0.307 0.22,-0.287C0.22,-0.267 0.221,-0.25 0.222,-0.235C0.223,-0.224 0.229,-0.218 0.238,-0.219C0.247,-0.219 0.257,-0.221 0.267,-0.224C0.27,-0.225 0.277,-0.228 0.289,-0.234C0.3,-0.239 0.314,-0.246 0.33,-0.254C0.345,-0.261 0.362,-0.27 0.379,-0.279C0.396,-0.288 0.412,-0.296 0.426,-0.303C0.426,-0.294 0.421,-0.285 0.411,-0.276C0.406,-0.271 0.4,-0.267 0.394,-0.263C0.387,-0.259 0.381,-0.255 0.374,-0.25C0.367,-0.245 0.362,-0.24 0.359,-0.235C0.356,-0.23 0.35,-0.224 0.341,-0.218C0.324,-0.207 0.305,-0.196 0.285,-0.187C0.265,-0.178 0.247,-0.171 0.231,-0.167C0.226,-0.166 0.22,-0.165 0.215,-0.165C0.209,-0.165 0.203,-0.164 0.198,-0.162C0.19,-0.159 0.184,-0.159 0.18,-0.164C0.175,-0.169 0.172,-0.175 0.171,-0.184C0.168,-0.209 0.167,-0.235 0.166,-0.263C0.165,-0.291 0.164,-0.319 0.165,-0.348C0.145,-0.347 0.127,-0.346 0.11,-0.346C0.093,-0.347 0.079,-0.348 0.068,-0.35C0.058,-0.351 0.049,-0.354 0.041,-0.357C0.032,-0.36 0.025,-0.364 0.018,-0.371C0.012,-0.371 0.01,-0.374 0.013,-0.38C0.015,-0.385 0.017,-0.39 0.018,-0.394C0.032,-0.395 0.053,-0.396 0.08,-0.397C0.107,-0.398 0.136,-0.399 0.167,-0.4C0.17,-0.455 0.174,-0.507 0.181,-0.554C0.188,-0.601 0.196,-0.637 0.205,-0.66C0.205,-0.666 0.207,-0.67 0.213,-0.673C0.218,-0.675 0.223,-0.678 0.228,-0.681C0.231,-0.682 0.234,-0.684 0.236,-0.687C0.239,-0.689 0.244,-0.69 0.249,-0.69C0.255,-0.687 0.259,-0.684 0.262,-0.682C0.265,-0.679 0.266,-0.676 0.266,-0.673C0.266,-0.67 0.265,-0.666 0.263,-0.661C0.261,-0.656 0.259,-0.65 0.256,-0.643C0.255,-0.641 0.253,-0.633 0.25,-0.618C0.247,-0.603 0.245,-0.585 0.242,-0.563C0.238,-0.54 0.235,-0.515 0.232,-0.487C0.229,-0.458 0.226,-0.43 0.224,-0.401C0.246,-0.401 0.267,-0.401 0.287,-0.401C0.307,-0.4 0.325,-0.399 0.34,-0.398L0.389,-0.391Z" style="fill:rgb(64,64,64);fill-rule:nonzero;"/>
            </g>
            <g transform="matrix(150,0,0,150,132,0)">
                <path d="M0.293,-0.439C0.293,-0.392 0.294,-0.349 0.295,-0.309C0.296,-0.269 0.299,-0.23 0.306,-0.191C0.307,-0.187 0.306,-0.183 0.303,-0.178C0.3,-0.173 0.298,-0.169 0.295,-0.166C0.291,-0.161 0.287,-0.157 0.284,-0.153C0.281,-0.148 0.277,-0.145 0.274,-0.144C0.267,-0.141 0.263,-0.14 0.262,-0.142C0.261,-0.144 0.26,-0.147 0.259,-0.15C0.256,-0.163 0.253,-0.18 0.249,-0.202C0.244,-0.223 0.241,-0.245 0.24,-0.267C0.232,-0.254 0.223,-0.24 0.214,-0.227C0.204,-0.213 0.194,-0.2 0.183,-0.189C0.172,-0.178 0.16,-0.168 0.149,-0.159C0.138,-0.15 0.127,-0.143 0.116,-0.139C0.111,-0.137 0.108,-0.137 0.107,-0.138C0.105,-0.139 0.102,-0.141 0.098,-0.142C0.092,-0.145 0.086,-0.147 0.081,-0.15C0.075,-0.152 0.07,-0.155 0.067,-0.16C0.06,-0.173 0.054,-0.185 0.049,-0.197C0.042,-0.216 0.037,-0.237 0.035,-0.258C0.034,-0.279 0.034,-0.301 0.035,-0.322C0.036,-0.343 0.039,-0.364 0.042,-0.384C0.045,-0.404 0.049,-0.422 0.052,-0.439C0.053,-0.442 0.054,-0.445 0.057,-0.446C0.06,-0.447 0.061,-0.449 0.062,-0.452C0.063,-0.457 0.066,-0.461 0.07,-0.463C0.073,-0.465 0.077,-0.467 0.081,-0.468C0.086,-0.469 0.091,-0.47 0.094,-0.471C0.097,-0.472 0.101,-0.473 0.106,-0.473C0.1,-0.454 0.095,-0.432 0.092,-0.407C0.089,-0.382 0.087,-0.357 0.087,-0.332C0.088,-0.306 0.09,-0.281 0.095,-0.257C0.099,-0.233 0.105,-0.212 0.114,-0.194C0.127,-0.203 0.139,-0.213 0.152,-0.226C0.164,-0.239 0.175,-0.252 0.186,-0.266C0.197,-0.279 0.206,-0.292 0.215,-0.305C0.223,-0.318 0.229,-0.328 0.233,-0.337C0.237,-0.35 0.239,-0.366 0.241,-0.383C0.242,-0.4 0.242,-0.415 0.242,-0.428C0.241,-0.434 0.242,-0.439 0.244,-0.442C0.245,-0.445 0.247,-0.449 0.249,-0.453C0.25,-0.455 0.251,-0.457 0.252,-0.459C0.252,-0.461 0.253,-0.463 0.255,-0.464C0.256,-0.465 0.258,-0.467 0.26,-0.469C0.261,-0.472 0.263,-0.473 0.265,-0.473C0.269,-0.473 0.272,-0.471 0.273,-0.467C0.274,-0.463 0.276,-0.46 0.279,-0.458C0.282,-0.455 0.285,-0.452 0.289,-0.451C0.292,-0.449 0.293,-0.445 0.293,-0.439Z" style="fill:rgb(64,64,64);fill-rule:nonzero;"/>
            </g>
            <g transform="matrix(150,0,0,150,183,0)">
                <path d="M0.233,-0.72C0.233,-0.677 0.237,-0.637 0.245,-0.601C0.253,-0.564 0.26,-0.526 0.265,-0.487C0.27,-0.448 0.274,-0.409 0.276,-0.371C0.278,-0.332 0.281,-0.297 0.284,-0.264C0.282,-0.26 0.281,-0.255 0.281,-0.25C0.282,-0.245 0.28,-0.24 0.277,-0.237C0.267,-0.228 0.256,-0.219 0.243,-0.21C0.23,-0.201 0.216,-0.193 0.201,-0.186C0.196,-0.183 0.19,-0.182 0.185,-0.183C0.18,-0.183 0.174,-0.182 0.169,-0.181C0.163,-0.18 0.157,-0.178 0.151,-0.176C0.144,-0.174 0.138,-0.174 0.131,-0.175C0.124,-0.177 0.115,-0.18 0.105,-0.185C0.095,-0.189 0.085,-0.194 0.075,-0.2C0.065,-0.206 0.056,-0.213 0.048,-0.22C0.039,-0.227 0.033,-0.235 0.029,-0.244C0.022,-0.282 0.023,-0.316 0.034,-0.347C0.044,-0.378 0.059,-0.405 0.08,-0.43C0.083,-0.433 0.086,-0.436 0.09,-0.438C0.094,-0.439 0.098,-0.441 0.101,-0.444C0.104,-0.447 0.108,-0.449 0.112,-0.451C0.116,-0.452 0.121,-0.453 0.126,-0.452C0.139,-0.451 0.154,-0.448 0.17,-0.443C0.186,-0.438 0.198,-0.434 0.207,-0.433L0.207,-0.448C0.207,-0.465 0.206,-0.483 0.203,-0.5C0.201,-0.518 0.199,-0.536 0.197,-0.554C0.195,-0.572 0.194,-0.591 0.193,-0.61C0.192,-0.628 0.192,-0.648 0.195,-0.668C0.196,-0.673 0.197,-0.679 0.199,-0.684C0.201,-0.689 0.203,-0.695 0.204,-0.7C0.205,-0.703 0.207,-0.707 0.21,-0.712C0.213,-0.716 0.216,-0.719 0.219,-0.72C0.222,-0.721 0.224,-0.724 0.225,-0.727C0.226,-0.73 0.227,-0.731 0.23,-0.73C0.233,-0.729 0.234,-0.728 0.234,-0.727C0.233,-0.726 0.233,-0.723 0.233,-0.72ZM0.227,-0.254C0.228,-0.261 0.228,-0.272 0.228,-0.285C0.227,-0.299 0.225,-0.313 0.221,-0.328C0.217,-0.343 0.211,-0.357 0.202,-0.37C0.193,-0.383 0.18,-0.393 0.164,-0.4C0.157,-0.399 0.148,-0.398 0.139,-0.397C0.129,-0.395 0.119,-0.392 0.11,-0.388C0.101,-0.384 0.092,-0.379 0.084,-0.372C0.076,-0.365 0.07,-0.356 0.065,-0.345C0.061,-0.333 0.061,-0.318 0.065,-0.299C0.069,-0.28 0.08,-0.261 0.097,-0.244C0.107,-0.238 0.118,-0.234 0.129,-0.234C0.14,-0.233 0.152,-0.233 0.164,-0.234C0.175,-0.235 0.187,-0.238 0.198,-0.242C0.209,-0.246 0.218,-0.25 0.227,-0.254Z" style="fill:rgb(64,64,64);fill-rule:nonzero;"/>
            </g>
            <g transform="matrix(150,0,0,150,230.85,0)">
                <path d="M0.159,-0.499C0.164,-0.494 0.167,-0.489 0.166,-0.486C0.165,-0.483 0.162,-0.481 0.159,-0.482C0.15,-0.482 0.141,-0.481 0.131,-0.48C0.12,-0.478 0.109,-0.476 0.098,-0.475C0.086,-0.474 0.074,-0.474 0.061,-0.475C0.048,-0.476 0.036,-0.478 0.023,-0.482C0.018,-0.487 0.018,-0.492 0.024,-0.497C0.029,-0.501 0.034,-0.507 0.037,-0.516C0.039,-0.522 0.042,-0.526 0.046,-0.529C0.049,-0.531 0.053,-0.532 0.057,-0.533C0.064,-0.533 0.074,-0.532 0.085,-0.529C0.096,-0.526 0.105,-0.524 0.112,-0.523C0.123,-0.522 0.133,-0.52 0.14,-0.518C0.147,-0.515 0.154,-0.509 0.159,-0.499ZM0.138,-0.363C0.142,-0.348 0.145,-0.334 0.148,-0.321C0.15,-0.308 0.152,-0.296 0.153,-0.284C0.154,-0.273 0.154,-0.261 0.155,-0.249C0.155,-0.237 0.155,-0.224 0.155,-0.21C0.155,-0.207 0.154,-0.204 0.151,-0.202C0.148,-0.199 0.145,-0.195 0.144,-0.192C0.141,-0.186 0.139,-0.182 0.138,-0.181C0.136,-0.18 0.133,-0.178 0.129,-0.176C0.12,-0.172 0.111,-0.166 0.104,-0.159C0.095,-0.172 0.09,-0.186 0.086,-0.203C0.084,-0.22 0.082,-0.237 0.081,-0.255C0.08,-0.273 0.079,-0.291 0.078,-0.31C0.077,-0.328 0.074,-0.346 0.07,-0.363C0.068,-0.372 0.069,-0.379 0.072,-0.382C0.075,-0.385 0.079,-0.388 0.083,-0.389C0.088,-0.39 0.093,-0.389 0.099,-0.386C0.104,-0.383 0.11,-0.379 0.115,-0.376C0.12,-0.373 0.124,-0.372 0.129,-0.372C0.133,-0.371 0.136,-0.368 0.138,-0.363Z" style="fill:rgb(64,64,64);fill-rule:nonzero;"/>
            </g>
            <g transform="matrix(150,0,0,150,262.5,0)">
                <path d="M0.165,-0.459L0.148,-0.442C0.153,-0.443 0.162,-0.444 0.172,-0.447C0.184,-0.449 0.194,-0.45 0.205,-0.45C0.213,-0.449 0.22,-0.446 0.225,-0.442C0.23,-0.438 0.234,-0.43 0.235,-0.419C0.238,-0.403 0.242,-0.387 0.248,-0.371C0.253,-0.354 0.258,-0.338 0.261,-0.322C0.264,-0.306 0.263,-0.291 0.26,-0.277C0.257,-0.262 0.248,-0.249 0.233,-0.238C0.218,-0.215 0.201,-0.195 0.183,-0.18C0.164,-0.164 0.145,-0.155 0.125,-0.152C0.112,-0.15 0.097,-0.152 0.081,-0.158C0.065,-0.163 0.053,-0.173 0.046,-0.187C0.044,-0.186 0.042,-0.186 0.041,-0.187C0.04,-0.188 0.038,-0.189 0.037,-0.19C0.036,-0.191 0.035,-0.192 0.034,-0.191C0.033,-0.19 0.032,-0.191 0.031,-0.192C0.03,-0.194 0.03,-0.197 0.03,-0.2L0.03,-0.204C0.031,-0.227 0.033,-0.251 0.037,-0.275C0.04,-0.298 0.046,-0.321 0.054,-0.344C0.061,-0.366 0.071,-0.387 0.084,-0.406C0.096,-0.426 0.112,-0.444 0.131,-0.459C0.138,-0.463 0.145,-0.464 0.153,-0.463L0.158,-0.463C0.16,-0.463 0.162,-0.462 0.165,-0.459ZM0.131,-0.391C0.127,-0.392 0.125,-0.393 0.124,-0.395C0.123,-0.397 0.124,-0.4 0.125,-0.403C0.126,-0.406 0.127,-0.409 0.129,-0.413C0.13,-0.417 0.131,-0.421 0.131,-0.425C0.117,-0.412 0.106,-0.397 0.099,-0.379C0.091,-0.361 0.085,-0.343 0.082,-0.324C0.079,-0.305 0.077,-0.286 0.078,-0.268C0.078,-0.25 0.079,-0.234 0.08,-0.221C0.081,-0.21 0.084,-0.201 0.087,-0.194C0.09,-0.187 0.095,-0.182 0.102,-0.181C0.109,-0.179 0.119,-0.181 0.131,-0.187C0.148,-0.196 0.162,-0.208 0.173,-0.223C0.184,-0.238 0.192,-0.255 0.199,-0.272C0.202,-0.281 0.204,-0.293 0.205,-0.306C0.207,-0.319 0.207,-0.331 0.204,-0.342C0.201,-0.357 0.192,-0.369 0.179,-0.376C0.165,-0.383 0.149,-0.388 0.131,-0.391Z" style="fill:rgb(64,64,64);fill-rule:nonzero;"/>
            </g>
        </g>
        <g transform="matrix(1,0,0,1,561.142,235.482)">
            <g transform="matrix(150,0,0,150,0,0)">
                <path d="M0.385,-0.563C0.384,-0.56 0.384,-0.558 0.385,-0.557C0.386,-0.556 0.386,-0.554 0.385,-0.553C0.383,-0.552 0.38,-0.551 0.375,-0.551C0.37,-0.55 0.365,-0.55 0.362,-0.549C0.357,-0.548 0.353,-0.547 0.348,-0.548C0.343,-0.548 0.338,-0.55 0.333,-0.553C0.325,-0.557 0.315,-0.561 0.304,-0.565C0.292,-0.568 0.279,-0.57 0.266,-0.57C0.249,-0.57 0.23,-0.568 0.211,-0.565C0.192,-0.561 0.173,-0.556 0.156,-0.55C0.138,-0.543 0.122,-0.535 0.109,-0.526C0.095,-0.517 0.085,-0.506 0.079,-0.495C0.075,-0.486 0.073,-0.477 0.074,-0.468C0.075,-0.458 0.077,-0.449 0.081,-0.44C0.085,-0.431 0.09,-0.424 0.096,-0.417C0.101,-0.409 0.107,-0.405 0.112,-0.402C0.129,-0.393 0.147,-0.388 0.168,-0.385C0.188,-0.382 0.209,-0.381 0.231,-0.38C0.252,-0.379 0.274,-0.378 0.295,-0.377C0.316,-0.376 0.336,-0.372 0.354,-0.367C0.363,-0.364 0.372,-0.361 0.381,-0.359C0.389,-0.357 0.396,-0.354 0.403,-0.35C0.41,-0.347 0.416,-0.342 0.422,-0.336C0.427,-0.329 0.432,-0.32 0.436,-0.308C0.442,-0.283 0.441,-0.258 0.432,-0.234C0.423,-0.209 0.409,-0.188 0.389,-0.169C0.369,-0.15 0.346,-0.134 0.321,-0.123C0.301,-0.114 0.281,-0.109 0.26,-0.106C0.238,-0.102 0.218,-0.103 0.199,-0.107C0.179,-0.111 0.161,-0.119 0.145,-0.13C0.128,-0.141 0.115,-0.157 0.105,-0.177C0.099,-0.19 0.096,-0.205 0.096,-0.223C0.095,-0.225 0.095,-0.227 0.096,-0.229C0.097,-0.234 0.102,-0.236 0.109,-0.236C0.112,-0.237 0.115,-0.236 0.119,-0.234C0.124,-0.231 0.127,-0.229 0.129,-0.228C0.134,-0.227 0.14,-0.224 0.145,-0.218C0.15,-0.211 0.154,-0.206 0.159,-0.202C0.176,-0.185 0.195,-0.174 0.216,-0.171C0.236,-0.167 0.257,-0.167 0.277,-0.171C0.296,-0.174 0.314,-0.18 0.331,-0.188C0.348,-0.196 0.36,-0.203 0.368,-0.21C0.373,-0.214 0.378,-0.219 0.384,-0.225C0.389,-0.23 0.395,-0.236 0.4,-0.244C0.405,-0.251 0.41,-0.258 0.413,-0.266C0.417,-0.274 0.419,-0.282 0.419,-0.291C0.417,-0.299 0.412,-0.305 0.403,-0.31C0.394,-0.314 0.383,-0.317 0.37,-0.32C0.347,-0.324 0.324,-0.326 0.301,-0.327C0.278,-0.327 0.256,-0.327 0.234,-0.326C0.212,-0.325 0.19,-0.325 0.169,-0.325C0.148,-0.325 0.127,-0.327 0.107,-0.332C0.101,-0.333 0.095,-0.336 0.09,-0.339C0.084,-0.342 0.078,-0.345 0.073,-0.348C0.068,-0.351 0.064,-0.356 0.061,-0.361C0.058,-0.366 0.055,-0.372 0.052,-0.378C0.049,-0.384 0.046,-0.39 0.043,-0.397C0.04,-0.403 0.037,-0.41 0.036,-0.417C0.033,-0.438 0.033,-0.46 0.037,-0.483C0.04,-0.506 0.049,-0.527 0.062,-0.546C0.073,-0.562 0.087,-0.576 0.106,-0.588C0.124,-0.599 0.145,-0.608 0.168,-0.615C0.191,-0.621 0.215,-0.624 0.241,-0.624C0.267,-0.623 0.294,-0.619 0.321,-0.611L0.345,-0.6C0.354,-0.595 0.363,-0.59 0.37,-0.583C0.377,-0.576 0.382,-0.57 0.385,-0.563Z" style="fill:rgb(64,64,64);fill-rule:nonzero;"/>
            </g>
            <g transform="matrix(150,0,0,150,70.5,0)">
                <path d="M0.312,-0.442C0.319,-0.425 0.323,-0.408 0.324,-0.392C0.324,-0.376 0.32,-0.359 0.312,-0.34C0.304,-0.326 0.293,-0.314 0.279,-0.303C0.265,-0.292 0.25,-0.282 0.234,-0.274C0.219,-0.266 0.204,-0.259 0.189,-0.254C0.174,-0.249 0.163,-0.244 0.154,-0.241C0.157,-0.221 0.159,-0.199 0.162,-0.175C0.165,-0.152 0.167,-0.128 0.169,-0.103C0.17,-0.079 0.172,-0.055 0.173,-0.032C0.174,-0.008 0.175,0.014 0.176,0.034C0.176,0.038 0.175,0.04 0.173,0.041C0.171,0.042 0.169,0.044 0.166,0.047C0.164,0.049 0.162,0.052 0.161,0.055C0.159,0.058 0.157,0.061 0.154,0.062C0.152,0.063 0.15,0.065 0.148,0.066C0.146,0.067 0.144,0.068 0.142,0.068C0.132,0.034 0.123,-0.004 0.115,-0.045C0.107,-0.086 0.1,-0.128 0.095,-0.172C0.089,-0.215 0.084,-0.259 0.081,-0.303C0.078,-0.346 0.075,-0.387 0.074,-0.425C0.065,-0.424 0.055,-0.421 0.046,-0.417C0.037,-0.412 0.028,-0.408 0.021,-0.404C0.02,-0.403 0.018,-0.402 0.017,-0.403C0.016,-0.404 0.014,-0.403 0.013,-0.402C0.011,-0.401 0.009,-0.4 0.007,-0.399C0.005,-0.398 0.003,-0.398 0.001,-0.399C-0.003,-0.401 -0.007,-0.404 -0.011,-0.408C-0.004,-0.43 0.008,-0.447 0.024,-0.46C0.04,-0.473 0.058,-0.482 0.077,-0.487C0.088,-0.49 0.106,-0.492 0.129,-0.494C0.152,-0.495 0.177,-0.495 0.202,-0.493C0.227,-0.49 0.25,-0.485 0.271,-0.477C0.292,-0.47 0.306,-0.458 0.312,-0.442ZM0.275,-0.406C0.273,-0.419 0.266,-0.428 0.255,-0.435C0.244,-0.442 0.23,-0.446 0.215,-0.448C0.2,-0.45 0.184,-0.45 0.168,-0.449C0.151,-0.447 0.137,-0.444 0.124,-0.44C0.126,-0.431 0.128,-0.421 0.13,-0.408C0.132,-0.395 0.134,-0.382 0.136,-0.369C0.138,-0.356 0.14,-0.342 0.141,-0.329C0.143,-0.316 0.144,-0.304 0.145,-0.295C0.158,-0.298 0.172,-0.303 0.187,-0.31C0.202,-0.316 0.217,-0.324 0.23,-0.333C0.243,-0.342 0.253,-0.353 0.262,-0.366C0.271,-0.378 0.275,-0.391 0.275,-0.406Z" style="fill:rgb(64,64,64);fill-rule:nonzero;"/>
            </g>
            <g transform="matrix(150,0,0,150,123,0)">
                <path d="M0.159,-0.499C0.164,-0.494 0.167,-0.489 0.166,-0.486C0.165,-0.483 0.162,-0.481 0.159,-0.482C0.15,-0.482 0.141,-0.481 0.131,-0.48C0.12,-0.478 0.109,-0.476 0.098,-0.475C0.086,-0.474 0.074,-0.474 0.061,-0.475C0.048,-0.476 0.036,-0.478 0.023,-0.482C0.018,-0.487 0.018,-0.492 0.024,-0.497C0.029,-0.501 0.034,-0.507 0.037,-0.516C0.039,-0.522 0.042,-0.526 0.046,-0.529C0.049,-0.531 0.053,-0.532 0.057,-0.533C0.064,-0.533 0.074,-0.532 0.085,-0.529C0.096,-0.526 0.105,-0.524 0.112,-0.523C0.123,-0.522 0.133,-0.52 0.14,-0.518C0.147,-0.515 0.154,-0.509 0.159,-0.499ZM0.138,-0.363C0.142,-0.348 0.145,-0.334 0.148,-0.321C0.15,-0.308 0.152,-0.296 0.153,-0.284C0.154,-0.273 0.154,-0.261 0.155,-0.249C0.155,-0.237 0.155,-0.224 0.155,-0.21C0.155,-0.207 0.154,-0.204 0.151,-0.202C0.148,-0.199 0.145,-0.195 0.144,-0.192C0.141,-0.186 0.139,-0.182 0.138,-0.181C0.136,-0.18 0.133,-0.178 0.129,-0.176C0.12,-0.172 0.111,-0.166 0.104,-0.159C0.095,-0.172 0.09,-0.186 0.086,-0.203C0.084,-0.22 0.082,-0.237 0.081,-0.255C0.08,-0.273 0.079,-0.291 0.078,-0.31C0.077,-0.328 0.074,-0.346 0.07,-0.363C0.068,-0.372 0.069,-0.379 0.072,-0.382C0.075,-0.385 0.079,-0.388 0.083,-0.389C0.088,-0.39 0.093,-0.389 0.099,-0.386C0.104,-0.383 0.11,-0.379 0.115,-0.376C0.12,-0.373 0.124,-0.372 0.129,-0.372C0.133,-0.371 0.136,-0.368 0.138,-0.363Z" style="fill:rgb(64,64,64);fill-rule:nonzero;"/>
            </g>
            <g transform="matrix(150,0,0,150,154.65,0)">
                <path d="M0.26,-0.478C0.265,-0.473 0.269,-0.468 0.273,-0.463C0.277,-0.457 0.28,-0.451 0.283,-0.445C0.288,-0.432 0.291,-0.42 0.292,-0.407C0.292,-0.395 0.287,-0.38 0.277,-0.363C0.266,-0.344 0.251,-0.329 0.234,-0.316C0.216,-0.303 0.197,-0.295 0.176,-0.292C0.161,-0.289 0.147,-0.29 0.132,-0.293C0.117,-0.296 0.103,-0.302 0.09,-0.312C0.086,-0.309 0.083,-0.304 0.081,-0.298C0.078,-0.291 0.077,-0.285 0.078,-0.28C0.079,-0.271 0.083,-0.261 0.089,-0.25C0.094,-0.238 0.1,-0.231 0.107,-0.227C0.118,-0.222 0.134,-0.222 0.155,-0.226C0.175,-0.23 0.197,-0.236 0.22,-0.245C0.243,-0.253 0.265,-0.262 0.288,-0.273C0.31,-0.283 0.329,-0.292 0.345,-0.299C0.345,-0.295 0.344,-0.292 0.343,-0.291C0.341,-0.29 0.339,-0.287 0.336,-0.284C0.333,-0.281 0.329,-0.277 0.325,-0.272C0.321,-0.267 0.316,-0.263 0.311,-0.26C0.304,-0.256 0.299,-0.251 0.296,-0.245C0.293,-0.238 0.286,-0.232 0.277,-0.227C0.264,-0.22 0.252,-0.214 0.238,-0.206C0.226,-0.2 0.213,-0.193 0.2,-0.188C0.187,-0.182 0.174,-0.178 0.162,-0.174C0.149,-0.172 0.136,-0.171 0.123,-0.172C0.114,-0.173 0.107,-0.176 0.102,-0.179C0.096,-0.182 0.089,-0.187 0.081,-0.194C0.077,-0.197 0.072,-0.201 0.067,-0.204C0.062,-0.207 0.058,-0.211 0.055,-0.214C0.044,-0.231 0.036,-0.249 0.032,-0.268C0.028,-0.286 0.027,-0.306 0.029,-0.325C0.032,-0.344 0.037,-0.362 0.044,-0.381C0.051,-0.399 0.061,-0.416 0.073,-0.431C0.08,-0.44 0.088,-0.449 0.098,-0.458C0.107,-0.467 0.118,-0.474 0.13,-0.482C0.141,-0.489 0.154,-0.494 0.167,-0.498C0.18,-0.502 0.193,-0.504 0.206,-0.503C0.211,-0.502 0.216,-0.501 0.221,-0.499C0.225,-0.496 0.23,-0.494 0.235,-0.491C0.238,-0.49 0.243,-0.488 0.248,-0.486C0.253,-0.483 0.257,-0.481 0.26,-0.478ZM0.231,-0.419C0.23,-0.425 0.226,-0.43 0.22,-0.435C0.214,-0.44 0.207,-0.444 0.2,-0.447C0.193,-0.45 0.185,-0.451 0.178,-0.452C0.171,-0.453 0.165,-0.452 0.162,-0.451C0.157,-0.449 0.151,-0.446 0.143,-0.441C0.137,-0.436 0.13,-0.43 0.124,-0.423C0.117,-0.416 0.111,-0.409 0.106,-0.402C0.1,-0.394 0.096,-0.387 0.093,-0.38C0.092,-0.378 0.091,-0.375 0.09,-0.371C0.089,-0.366 0.089,-0.363 0.09,-0.361C0.098,-0.351 0.11,-0.346 0.126,-0.346C0.141,-0.346 0.158,-0.35 0.175,-0.357C0.193,-0.364 0.206,-0.372 0.213,-0.38C0.214,-0.381 0.215,-0.384 0.218,-0.387C0.22,-0.39 0.222,-0.394 0.224,-0.398C0.226,-0.402 0.228,-0.406 0.23,-0.41C0.231,-0.414 0.232,-0.417 0.231,-0.419Z" style="fill:rgb(64,64,64);fill-rule:nonzero;"/>
            </g>
            <g transform="matrix(150,0,0,150,204.15,0)">
                <path d="M0.111,-0.646C0.119,-0.61 0.125,-0.574 0.13,-0.538C0.135,-0.502 0.139,-0.466 0.143,-0.43C0.147,-0.394 0.151,-0.358 0.156,-0.322C0.16,-0.286 0.166,-0.25 0.173,-0.214C0.172,-0.205 0.171,-0.198 0.17,-0.193C0.169,-0.188 0.168,-0.184 0.165,-0.183C0.162,-0.181 0.159,-0.179 0.156,-0.177C0.153,-0.174 0.149,-0.172 0.146,-0.171C0.145,-0.17 0.143,-0.169 0.142,-0.168C0.141,-0.166 0.139,-0.165 0.138,-0.164C0.136,-0.163 0.134,-0.163 0.133,-0.164C0.132,-0.165 0.13,-0.167 0.128,-0.17C0.115,-0.208 0.104,-0.246 0.094,-0.285C0.083,-0.324 0.075,-0.363 0.069,-0.402C0.062,-0.441 0.058,-0.481 0.057,-0.522C0.055,-0.562 0.056,-0.603 0.06,-0.646C0.06,-0.656 0.063,-0.662 0.069,-0.665C0.072,-0.666 0.075,-0.665 0.08,-0.662C0.084,-0.659 0.088,-0.656 0.091,-0.655C0.096,-0.653 0.099,-0.652 0.102,-0.652C0.105,-0.651 0.108,-0.649 0.111,-0.646Z" style="fill:rgb(64,64,64);fill-rule:nonzero;"/>
            </g>
            <g transform="matrix(150,0,0,150,237.3,0)">
                <path d="M0.345,-0.493C0.345,-0.487 0.346,-0.48 0.348,-0.47C0.35,-0.462 0.349,-0.454 0.346,-0.449C0.345,-0.448 0.344,-0.445 0.344,-0.442C0.344,-0.438 0.343,-0.435 0.341,-0.434L0.328,-0.442C0.317,-0.447 0.306,-0.45 0.293,-0.449C0.28,-0.448 0.266,-0.445 0.253,-0.44C0.244,-0.436 0.234,-0.431 0.226,-0.424C0.217,-0.417 0.208,-0.409 0.2,-0.4C0.192,-0.391 0.185,-0.382 0.178,-0.373C0.171,-0.364 0.166,-0.355 0.161,-0.346C0.15,-0.327 0.145,-0.303 0.146,-0.276C0.146,-0.249 0.156,-0.213 0.175,-0.17C0.175,-0.165 0.172,-0.16 0.165,-0.153L0.155,-0.141C0.15,-0.136 0.147,-0.132 0.146,-0.129C0.145,-0.126 0.142,-0.123 0.139,-0.122C0.134,-0.12 0.129,-0.125 0.124,-0.136C0.113,-0.156 0.102,-0.181 0.092,-0.21C0.081,-0.238 0.071,-0.268 0.063,-0.299C0.054,-0.33 0.046,-0.359 0.039,-0.388C0.032,-0.416 0.026,-0.44 0.022,-0.459C0.02,-0.464 0.02,-0.469 0.021,-0.474C0.022,-0.48 0.024,-0.484 0.027,-0.487C0.029,-0.49 0.032,-0.49 0.035,-0.489C0.038,-0.488 0.04,-0.487 0.042,-0.487C0.051,-0.487 0.056,-0.485 0.058,-0.482C0.06,-0.479 0.063,-0.474 0.068,-0.469C0.077,-0.458 0.085,-0.444 0.09,-0.426C0.095,-0.408 0.102,-0.387 0.11,-0.362C0.121,-0.38 0.135,-0.397 0.152,-0.414C0.169,-0.431 0.187,-0.446 0.207,-0.46C0.227,-0.473 0.248,-0.484 0.269,-0.493C0.29,-0.502 0.311,-0.507 0.331,-0.509C0.335,-0.51 0.339,-0.508 0.342,-0.505C0.344,-0.502 0.346,-0.498 0.345,-0.493Z" style="fill:rgb(64,64,64);fill-rule:nonzero;"/>
            </g>
            <g transform="matrix(150,0,0,150,291.3,0)">
                <path d="M0.284,-0.465C0.293,-0.444 0.301,-0.421 0.309,-0.396C0.316,-0.371 0.322,-0.347 0.325,-0.323C0.328,-0.298 0.328,-0.275 0.325,-0.252C0.322,-0.229 0.314,-0.21 0.301,-0.193C0.296,-0.186 0.289,-0.184 0.282,-0.185C0.279,-0.186 0.277,-0.187 0.275,-0.19C0.273,-0.193 0.27,-0.195 0.267,-0.197C0.264,-0.199 0.262,-0.201 0.259,-0.202C0.256,-0.203 0.253,-0.206 0.25,-0.21C0.24,-0.207 0.23,-0.202 0.221,-0.196C0.211,-0.189 0.201,-0.183 0.191,-0.176C0.181,-0.169 0.171,-0.163 0.16,-0.157C0.149,-0.15 0.138,-0.146 0.127,-0.143C0.115,-0.14 0.106,-0.14 0.101,-0.145C0.095,-0.149 0.089,-0.154 0.082,-0.159C0.077,-0.163 0.074,-0.166 0.073,-0.167C0.072,-0.168 0.07,-0.172 0.069,-0.179C0.067,-0.194 0.067,-0.21 0.069,-0.227C0.07,-0.244 0.074,-0.261 0.08,-0.278C0.097,-0.329 0.131,-0.363 0.182,-0.38C0.188,-0.382 0.194,-0.383 0.201,-0.382C0.207,-0.381 0.213,-0.379 0.219,-0.376C0.225,-0.373 0.231,-0.37 0.236,-0.366C0.242,-0.362 0.247,-0.358 0.252,-0.354L0.268,-0.341C0.271,-0.352 0.271,-0.365 0.268,-0.378C0.264,-0.391 0.258,-0.403 0.251,-0.414C0.244,-0.426 0.235,-0.437 0.226,-0.446C0.217,-0.455 0.208,-0.462 0.199,-0.465C0.165,-0.465 0.135,-0.457 0.108,-0.442C0.081,-0.426 0.054,-0.405 0.029,-0.38C0.028,-0.379 0.026,-0.378 0.025,-0.377C0.023,-0.376 0.021,-0.376 0.02,-0.375C0.018,-0.374 0.016,-0.373 0.013,-0.374C0.011,-0.375 0.011,-0.377 0.012,-0.38C0.016,-0.401 0.024,-0.421 0.036,-0.438C0.048,-0.455 0.062,-0.469 0.078,-0.482C0.094,-0.495 0.111,-0.505 0.129,-0.514C0.147,-0.523 0.165,-0.529 0.182,-0.533C0.185,-0.534 0.187,-0.535 0.19,-0.536C0.192,-0.536 0.195,-0.536 0.198,-0.536C0.203,-0.536 0.207,-0.535 0.211,-0.532C0.215,-0.529 0.22,-0.526 0.225,-0.523C0.232,-0.52 0.238,-0.516 0.245,-0.511C0.252,-0.507 0.258,-0.502 0.263,-0.496C0.268,-0.491 0.272,-0.485 0.275,-0.48C0.278,-0.475 0.281,-0.47 0.284,-0.465ZM0.25,-0.287C0.246,-0.296 0.24,-0.304 0.232,-0.311C0.223,-0.318 0.214,-0.324 0.203,-0.328C0.192,-0.331 0.181,-0.332 0.169,-0.33C0.156,-0.328 0.144,-0.322 0.131,-0.312C0.127,-0.303 0.123,-0.294 0.119,-0.283C0.115,-0.273 0.112,-0.263 0.11,-0.253C0.108,-0.242 0.107,-0.232 0.108,-0.222C0.108,-0.211 0.11,-0.202 0.114,-0.193C0.139,-0.202 0.164,-0.212 0.188,-0.223C0.212,-0.234 0.233,-0.244 0.25,-0.253C0.254,-0.257 0.256,-0.26 0.257,-0.263C0.258,-0.266 0.258,-0.268 0.257,-0.27C0.256,-0.272 0.254,-0.274 0.253,-0.277C0.251,-0.28 0.25,-0.283 0.25,-0.287Z" style="fill:rgb(64,64,64);fill-rule:nonzero;"/>
            </g>
            <g transform="matrix(150,0,0,150,345.3,0)">
                <path d="M0.293,-0.439C0.293,-0.392 0.294,-0.349 0.295,-0.309C0.296,-0.269 0.299,-0.23 0.306,-0.191C0.307,-0.187 0.306,-0.183 0.303,-0.178C0.3,-0.173 0.298,-0.169 0.295,-0.166C0.291,-0.161 0.287,-0.157 0.284,-0.153C0.281,-0.148 0.277,-0.145 0.274,-0.144C0.267,-0.141 0.263,-0.14 0.262,-0.142C0.261,-0.144 0.26,-0.147 0.259,-0.15C0.256,-0.163 0.253,-0.18 0.249,-0.202C0.244,-0.223 0.241,-0.245 0.24,-0.267C0.232,-0.254 0.223,-0.24 0.214,-0.227C0.204,-0.213 0.194,-0.2 0.183,-0.189C0.172,-0.178 0.16,-0.168 0.149,-0.159C0.138,-0.15 0.127,-0.143 0.116,-0.139C0.111,-0.137 0.108,-0.137 0.107,-0.138C0.105,-0.139 0.102,-0.141 0.098,-0.142C0.092,-0.145 0.086,-0.147 0.081,-0.15C0.075,-0.152 0.07,-0.155 0.067,-0.16C0.06,-0.173 0.054,-0.185 0.049,-0.197C0.042,-0.216 0.037,-0.237 0.035,-0.258C0.034,-0.279 0.034,-0.301 0.035,-0.322C0.036,-0.343 0.039,-0.364 0.042,-0.384C0.045,-0.404 0.049,-0.422 0.052,-0.439C0.053,-0.442 0.054,-0.445 0.057,-0.446C0.06,-0.447 0.061,-0.449 0.062,-0.452C0.063,-0.457 0.066,-0.461 0.07,-0.463C0.073,-0.465 0.077,-0.467 0.081,-0.468C0.086,-0.469 0.091,-0.47 0.094,-0.471C0.097,-0.472 0.101,-0.473 0.106,-0.473C0.1,-0.454 0.095,-0.432 0.092,-0.407C0.089,-0.382 0.087,-0.357 0.087,-0.332C0.088,-0.306 0.09,-0.281 0.095,-0.257C0.099,-0.233 0.105,-0.212 0.114,-0.194C0.127,-0.203 0.139,-0.213 0.152,-0.226C0.164,-0.239 0.175,-0.252 0.186,-0.266C0.197,-0.279 0.206,-0.292 0.215,-0.305C0.223,-0.318 0.229,-0.328 0.233,-0.337C0.237,-0.35 0.239,-0.366 0.241,-0.383C0.242,-0.4 0.242,-0.415 0.242,-0.428C0.241,-0.434 0.242,-0.439 0.244,-0.442C0.245,-0.445 0.247,-0.449 0.249,-0.453C0.25,-0.455 0.251,-0.457 0.252,-0.459C0.252,-0.461 0.253,-0.463 0.255,-0.464C0.256,-0.465 0.258,-0.467 0.26,-0.469C0.261,-0.472 0.263,-0.473 0.265,-0.473C0.269,-0.473 0.272,-0.471 0.273,-0.467C0.274,-0.463 0.276,-0.46 0.279,-0.458C0.282,-0.455 0.285,-0.452 0.289,-0.451C0.292,-0.449 0.293,-0.445 0.293,-0.439Z" style="fill:rgb(64,64,64);fill-rule:nonzero;"/>
            </g>
            <g transform="matrix(150,0,0,150,396.3,0)">
                <path d="M0.065,-0.476C0.069,-0.459 0.071,-0.441 0.07,-0.422C0.069,-0.403 0.069,-0.385 0.068,-0.366C0.067,-0.346 0.067,-0.328 0.068,-0.309C0.069,-0.29 0.073,-0.272 0.082,-0.255C0.097,-0.293 0.118,-0.328 0.145,-0.359C0.172,-0.39 0.2,-0.417 0.23,-0.442C0.234,-0.445 0.238,-0.448 0.243,-0.449C0.247,-0.45 0.251,-0.451 0.255,-0.452C0.258,-0.453 0.262,-0.455 0.265,-0.456C0.268,-0.457 0.272,-0.456 0.277,-0.453C0.29,-0.446 0.298,-0.432 0.3,-0.411C0.302,-0.39 0.303,-0.361 0.303,-0.323C0.313,-0.333 0.323,-0.344 0.334,-0.357C0.344,-0.369 0.354,-0.381 0.365,-0.392C0.376,-0.403 0.387,-0.413 0.398,-0.422C0.409,-0.431 0.421,-0.437 0.434,-0.441C0.438,-0.442 0.442,-0.443 0.447,-0.442C0.451,-0.441 0.455,-0.44 0.459,-0.44C0.462,-0.44 0.464,-0.441 0.466,-0.442C0.468,-0.443 0.47,-0.443 0.473,-0.442C0.477,-0.441 0.481,-0.439 0.484,-0.436C0.487,-0.433 0.489,-0.429 0.49,-0.425C0.493,-0.415 0.496,-0.401 0.501,-0.384C0.506,-0.366 0.51,-0.348 0.514,-0.33C0.517,-0.311 0.52,-0.294 0.522,-0.278C0.524,-0.262 0.524,-0.251 0.522,-0.244C0.521,-0.238 0.519,-0.234 0.518,-0.232C0.516,-0.23 0.512,-0.226 0.507,-0.221C0.506,-0.221 0.504,-0.22 0.502,-0.218C0.501,-0.216 0.499,-0.214 0.497,-0.212C0.494,-0.209 0.492,-0.207 0.49,-0.204C0.481,-0.217 0.475,-0.23 0.47,-0.245C0.465,-0.26 0.461,-0.275 0.458,-0.291C0.455,-0.307 0.452,-0.323 0.449,-0.34C0.446,-0.357 0.443,-0.374 0.439,-0.391C0.42,-0.381 0.405,-0.37 0.394,-0.357C0.383,-0.344 0.374,-0.33 0.367,-0.316C0.36,-0.301 0.354,-0.287 0.349,-0.272C0.344,-0.257 0.337,-0.243 0.329,-0.23C0.322,-0.219 0.314,-0.21 0.307,-0.203C0.3,-0.196 0.294,-0.193 0.289,-0.194C0.285,-0.195 0.282,-0.198 0.28,-0.205C0.278,-0.212 0.275,-0.222 0.272,-0.235C0.265,-0.262 0.259,-0.292 0.254,-0.323C0.248,-0.354 0.242,-0.383 0.235,-0.408C0.222,-0.404 0.21,-0.397 0.198,-0.387C0.185,-0.376 0.174,-0.364 0.163,-0.35C0.152,-0.337 0.143,-0.322 0.135,-0.305C0.126,-0.288 0.12,-0.272 0.116,-0.255C0.125,-0.238 0.125,-0.223 0.117,-0.212C0.114,-0.207 0.109,-0.202 0.103,-0.199C0.097,-0.195 0.09,-0.191 0.082,-0.187C0.077,-0.182 0.072,-0.181 0.067,-0.182C0.062,-0.183 0.057,-0.187 0.054,-0.192C0.051,-0.197 0.049,-0.201 0.048,-0.204C0.044,-0.225 0.04,-0.248 0.036,-0.271C0.032,-0.294 0.029,-0.317 0.029,-0.34C0.028,-0.363 0.028,-0.387 0.031,-0.409C0.034,-0.433 0.039,-0.455 0.048,-0.476C0.049,-0.48 0.051,-0.482 0.052,-0.482C0.053,-0.482 0.055,-0.482 0.056,-0.481C0.057,-0.48 0.059,-0.479 0.06,-0.478C0.061,-0.477 0.062,-0.477 0.063,-0.477C0.063,-0.477 0.064,-0.477 0.065,-0.476Z" style="fill:rgb(64,64,64);fill-rule:nonzero;"/>
            </g>
        </g>
    </g>
</svg>
