<?xml version="1.0" encoding="UTF-8" standalone="no"?>
<!DOCTYPE svg PUBLIC "-//W3C//DTD SVG 1.1//EN" "http://www.w3.org/Graphics/SVG/1.1/DTD/svg11.dtd">
<svg width="100%" height="100%" viewBox="0 0 1044 293" version="1.1" xmlns="http://www.w3.org/2000/svg" xmlns:xlink="http://www.w3.org/1999/xlink" xml:space="preserve" xmlns:serif="http://www.serif.com/" style="fill-rule:evenodd;clip-rule:evenodd;stroke-linejoin:round;stroke-miterlimit:2;">
    <g transform="matrix(1.05847,0,0,1,0,0)">
        <path d="M420.808,50.25C421.08,49.868 421.452,49.381 421.924,48.787C423.052,47.369 424.921,45.369 427.531,42.788C430.141,40.207 433.229,37.524 436.796,34.74C440.362,31.956 445.034,29.052 450.813,26.029C456.592,23.006 462.725,20.449 469.21,18.358C485.996,12.946 499.968,13.48 511.125,19.96C522.282,26.441 528.299,37.303 529.178,52.546C529.704,61.672 528.297,70.549 524.957,79.178C521.617,87.807 517.084,95.553 511.36,102.415C505.635,109.278 499.269,115.978 492.263,122.515C485.256,129.052 478.238,135.382 471.207,141.504C464.177,147.626 457.774,153.678 451.998,159.66C446.223,165.641 441.614,172.065 438.173,178.931C434.731,185.797 433.21,192.703 433.611,199.65C434.31,211.783 438.953,219.871 447.541,223.915C456.129,227.959 466.527,228.013 478.735,224.077C498.764,217.619 515.901,204.806 530.145,185.637C530.145,185.637 527.068,214.844 516.004,223.452C504.939,232.06 493.923,238.132 482.955,241.669C463.48,247.947 447.537,247.843 435.126,241.355C428.937,238.119 424.164,233.485 420.808,227.455C417.452,233.485 412.679,238.119 406.489,241.355C394.078,247.843 378.135,247.947 358.661,241.669C347.692,238.132 336.676,232.06 325.612,223.452C314.547,214.844 311.47,185.637 311.47,185.637C325.715,204.806 342.852,217.619 362.88,224.077C375.089,228.013 385.486,227.959 394.074,223.915C402.662,219.871 407.305,211.783 408.005,199.65C408.405,192.703 406.884,185.797 403.443,178.931C400.001,172.065 395.393,165.641 389.617,159.66C383.841,153.678 377.438,147.626 370.408,141.504C363.378,135.382 356.359,129.052 349.353,122.515C342.346,115.978 335.981,109.278 330.256,102.415C324.531,95.553 319.999,87.807 316.659,79.178C313.319,70.549 311.911,61.672 312.437,52.546C313.316,37.303 319.334,26.441 330.491,19.96C341.647,13.48 355.619,12.946 372.405,18.358C378.891,20.449 385.023,23.006 390.802,26.029C396.581,29.052 401.254,31.956 404.82,34.74C408.386,37.524 411.474,40.207 414.084,42.788C416.694,45.369 418.563,47.369 419.691,48.787C420.163,49.381 420.535,49.868 420.808,50.25ZM420.113,92.281C417.033,75.333 406.936,61.105 399.363,49.598C391.731,38.001 381.719,30.205 369.329,26.211C357.503,22.398 348.172,23.324 341.337,28.989C334.501,34.653 330.788,42.619 330.196,52.885C329.843,59.003 330.711,65.013 332.8,70.914C334.888,76.816 337.83,82.253 341.623,87.226C345.417,92.198 349.817,97.181 354.824,102.176C359.83,107.17 365.11,112.067 370.662,116.868C376.214,121.669 381.764,126.521 387.31,131.425C392.856,136.329 398.075,141.524 402.966,147.009C407.857,152.494 412.144,158.101 415.827,163.83C417.71,166.758 419.37,169.863 420.808,173.144C422.245,169.863 423.905,166.758 425.788,163.83C429.471,158.101 433.758,152.494 438.649,147.009C443.541,141.524 448.759,136.329 454.306,131.425C459.852,126.521 465.401,121.669 470.953,116.868C476.505,112.067 481.785,107.17 486.792,102.176C491.798,97.181 496.199,92.198 499.992,87.226C503.786,82.253 506.727,76.816 508.815,70.914C510.904,65.013 511.772,59.003 511.419,52.885C510.828,42.619 507.114,34.653 500.279,28.989C493.443,23.324 484.112,22.398 472.286,26.211C459.896,30.205 446.526,41.533 439.007,53.204C434.58,60.076 430.882,65.516 428.711,70.115C426.914,73.923 422.148,81.446 420.184,92.682L420.113,92.281Z" style="fill:rgb(64,64,64);fill-rule:nonzero;"/>
    </g>
    <g transform="matrix(1,0,0,1,-310,-577.518)">
        <text x="310px" y="813px" style="font-family:'NanumBrush', 'Nanum Brush Script', cursive;font-size:150px;fill:rgb(64,64,64);">Studio</text>
    </g>
    <g transform="matrix(1,0,0,1,251.142,-577.518)">
        <text x="310px" y="813px" style="font-family:'NanumBrush', 'Nanum Brush Script', cursive;font-size:150px;fill:rgb(64,64,64);">Spielraum</text>
    </g>
</svg>
