<?xml version="1.0" encoding="UTF-8" standalone="no"?>
<!DOCTYPE svg PUBLIC "-//W3C//DTD SVG 1.1//EN" "http://www.w3.org/Graphics/SVG/1.1/DTD/svg11.dtd">
<svg width="100%" height="100%" viewBox="0 0 1000 215" version="1.1" xmlns="http://www.w3.org/2000/svg" xmlns:xlink="http://www.w3.org/1999/xlink" xml:space="preserve" xmlns:serif="http://www.serif.com/" style="fill-rule:evenodd;clip-rule:evenodd;stroke-linejoin:round;stroke-miterlimit:2;">
    <g transform="matrix(1,0,0,1,-315.043,-608.492)">
        <g transform="matrix(150,0,0,150,310,813)">
            <path d="M0.385,-0.563C0.384,-0.56 0.384,-0.558 0.385,-0.557C0.386,-0.556 0.386,-0.554 0.385,-0.553C0.383,-0.552 0.38,-0.551 0.375,-0.551C0.37,-0.55 0.365,-0.55 0.362,-0.549C0.357,-0.548 0.353,-0.547 0.348,-0.548C0.343,-0.548 0.338,-0.55 0.333,-0.553C0.325,-0.557 0.315,-0.561 0.304,-0.565C0.292,-0.568 0.279,-0.57 0.266,-0.57C0.249,-0.57 0.23,-0.568 0.211,-0.565C0.192,-0.561 0.173,-0.556 0.156,-0.55C0.138,-0.543 0.122,-0.535 0.109,-0.526C0.095,-0.517 0.085,-0.506 0.079,-0.495C0.075,-0.486 0.073,-0.477 0.074,-0.468C0.075,-0.458 0.077,-0.449 0.081,-0.44C0.085,-0.431 0.09,-0.424 0.096,-0.417C0.101,-0.409 0.107,-0.405 0.112,-0.402C0.129,-0.393 0.147,-0.388 0.168,-0.385C0.188,-0.382 0.209,-0.381 0.231,-0.38C0.252,-0.379 0.274,-0.378 0.295,-0.377C0.316,-0.376 0.336,-0.372 0.354,-0.367C0.363,-0.364 0.372,-0.361 0.381,-0.359C0.389,-0.357 0.396,-0.354 0.403,-0.35C0.41,-0.347 0.416,-0.342 0.422,-0.336C0.427,-0.329 0.432,-0.32 0.436,-0.308C0.442,-0.283 0.441,-0.258 0.432,-0.234C0.423,-0.209 0.409,-0.188 0.389,-0.169C0.369,-0.15 0.346,-0.134 0.321,-0.123C0.301,-0.114 0.281,-0.109 0.26,-0.106C0.238,-0.102 0.218,-0.103 0.199,-0.107C0.179,-0.111 0.161,-0.119 0.145,-0.13C0.128,-0.141 0.115,-0.157 0.105,-0.177C0.099,-0.19 0.096,-0.205 0.096,-0.223C0.095,-0.225 0.095,-0.227 0.096,-0.229C0.097,-0.234 0.102,-0.236 0.109,-0.236C0.112,-0.237 0.115,-0.236 0.119,-0.234C0.124,-0.231 0.127,-0.229 0.129,-0.228C0.134,-0.227 0.14,-0.224 0.145,-0.218C0.15,-0.211 0.154,-0.206 0.159,-0.202C0.176,-0.185 0.195,-0.174 0.216,-0.171C0.236,-0.167 0.257,-0.167 0.277,-0.171C0.296,-0.174 0.314,-0.18 0.331,-0.188C0.348,-0.196 0.36,-0.203 0.368,-0.21C0.373,-0.214 0.378,-0.219 0.384,-0.225C0.389,-0.23 0.395,-0.236 0.4,-0.244C0.405,-0.251 0.41,-0.258 0.413,-0.266C0.417,-0.274 0.419,-0.282 0.419,-0.291C0.417,-0.299 0.412,-0.305 0.403,-0.31C0.394,-0.314 0.383,-0.317 0.37,-0.32C0.347,-0.324 0.324,-0.326 0.301,-0.327C0.278,-0.327 0.256,-0.327 0.234,-0.326C0.212,-0.325 0.19,-0.325 0.169,-0.325C0.148,-0.325 0.127,-0.327 0.107,-0.332C0.101,-0.333 0.095,-0.336 0.09,-0.339C0.084,-0.342 0.078,-0.345 0.073,-0.348C0.068,-0.351 0.064,-0.356 0.061,-0.361C0.058,-0.366 0.055,-0.372 0.052,-0.378C0.049,-0.384 0.046,-0.39 0.043,-0.397C0.04,-0.403 0.037,-0.41 0.036,-0.417C0.033,-0.438 0.033,-0.46 0.037,-0.483C0.04,-0.506 0.049,-0.527 0.062,-0.546C0.073,-0.562 0.087,-0.576 0.106,-0.588C0.124,-0.599 0.145,-0.608 0.168,-0.615C0.191,-0.621 0.215,-0.624 0.241,-0.624C0.267,-0.623 0.294,-0.619 0.321,-0.611L0.345,-0.6C0.354,-0.595 0.363,-0.59 0.37,-0.583C0.377,-0.576 0.382,-0.57 0.385,-0.563Z" style="fill:rgb(89,89,89);fill-rule:nonzero;"/>
        </g>
        <g transform="matrix(150,0,0,150,380.5,813)">
            <path d="M0.389,-0.391C0.39,-0.39 0.391,-0.389 0.392,-0.389C0.393,-0.389 0.393,-0.388 0.393,-0.387C0.392,-0.386 0.391,-0.384 0.389,-0.383C0.386,-0.381 0.382,-0.38 0.376,-0.379L0.36,-0.372C0.342,-0.368 0.321,-0.364 0.297,-0.361C0.272,-0.358 0.247,-0.355 0.221,-0.352C0.22,-0.329 0.219,-0.307 0.22,-0.287C0.22,-0.267 0.221,-0.25 0.222,-0.235C0.223,-0.224 0.229,-0.218 0.238,-0.219C0.247,-0.219 0.257,-0.221 0.267,-0.224C0.27,-0.225 0.277,-0.228 0.289,-0.234C0.3,-0.239 0.314,-0.246 0.33,-0.254C0.345,-0.261 0.362,-0.27 0.379,-0.279C0.396,-0.288 0.412,-0.296 0.426,-0.303C0.426,-0.294 0.421,-0.285 0.411,-0.276C0.406,-0.271 0.4,-0.267 0.394,-0.263C0.387,-0.259 0.381,-0.255 0.374,-0.25C0.367,-0.245 0.362,-0.24 0.359,-0.235C0.356,-0.23 0.35,-0.224 0.341,-0.218C0.324,-0.207 0.305,-0.196 0.285,-0.187C0.265,-0.178 0.247,-0.171 0.231,-0.167C0.226,-0.166 0.22,-0.165 0.215,-0.165C0.209,-0.165 0.203,-0.164 0.198,-0.162C0.19,-0.159 0.184,-0.159 0.18,-0.164C0.175,-0.169 0.172,-0.175 0.171,-0.184C0.168,-0.209 0.167,-0.235 0.166,-0.263C0.165,-0.291 0.164,-0.319 0.165,-0.348C0.145,-0.347 0.127,-0.346 0.11,-0.346C0.093,-0.347 0.079,-0.348 0.068,-0.35C0.058,-0.351 0.049,-0.354 0.041,-0.357C0.032,-0.36 0.025,-0.364 0.018,-0.371C0.012,-0.371 0.01,-0.374 0.013,-0.38C0.015,-0.385 0.017,-0.39 0.018,-0.394C0.032,-0.395 0.053,-0.396 0.08,-0.397C0.107,-0.398 0.136,-0.399 0.167,-0.4C0.17,-0.455 0.174,-0.507 0.181,-0.554C0.188,-0.601 0.196,-0.637 0.205,-0.66C0.205,-0.666 0.207,-0.67 0.213,-0.673C0.218,-0.675 0.223,-0.678 0.228,-0.681C0.231,-0.682 0.234,-0.684 0.236,-0.687C0.239,-0.689 0.244,-0.69 0.249,-0.69C0.255,-0.687 0.259,-0.684 0.262,-0.682C0.265,-0.679 0.266,-0.676 0.266,-0.673C0.266,-0.67 0.265,-0.666 0.263,-0.661C0.261,-0.656 0.259,-0.65 0.256,-0.643C0.255,-0.641 0.253,-0.633 0.25,-0.618C0.247,-0.603 0.245,-0.585 0.242,-0.563C0.238,-0.54 0.235,-0.515 0.232,-0.487C0.229,-0.458 0.226,-0.43 0.224,-0.401C0.246,-0.401 0.267,-0.401 0.287,-0.401C0.307,-0.4 0.325,-0.399 0.34,-0.398L0.389,-0.391Z" style="fill:rgb(89,89,89);fill-rule:nonzero;"/>
        </g>
        <g transform="matrix(150,0,0,150,442,813)">
            <path d="M0.293,-0.439C0.293,-0.392 0.294,-0.349 0.295,-0.309C0.296,-0.269 0.299,-0.23 0.306,-0.191C0.307,-0.187 0.306,-0.183 0.303,-0.178C0.3,-0.173 0.298,-0.169 0.295,-0.166C0.291,-0.161 0.287,-0.157 0.284,-0.153C0.281,-0.148 0.277,-0.145 0.274,-0.144C0.267,-0.141 0.263,-0.14 0.262,-0.142C0.261,-0.144 0.26,-0.147 0.259,-0.15C0.256,-0.163 0.253,-0.18 0.249,-0.202C0.244,-0.223 0.241,-0.245 0.24,-0.267C0.232,-0.254 0.223,-0.24 0.214,-0.227C0.204,-0.213 0.194,-0.2 0.183,-0.189C0.172,-0.178 0.16,-0.168 0.149,-0.159C0.138,-0.15 0.127,-0.143 0.116,-0.139C0.111,-0.137 0.108,-0.137 0.107,-0.138C0.105,-0.139 0.102,-0.141 0.098,-0.142C0.092,-0.145 0.086,-0.147 0.081,-0.15C0.075,-0.152 0.07,-0.155 0.067,-0.16C0.06,-0.173 0.054,-0.185 0.049,-0.197C0.042,-0.216 0.037,-0.237 0.035,-0.258C0.034,-0.279 0.034,-0.301 0.035,-0.322C0.036,-0.343 0.039,-0.364 0.042,-0.384C0.045,-0.404 0.049,-0.422 0.052,-0.439C0.053,-0.442 0.054,-0.445 0.057,-0.446C0.06,-0.447 0.061,-0.449 0.062,-0.452C0.063,-0.457 0.066,-0.461 0.07,-0.463C0.073,-0.465 0.077,-0.467 0.081,-0.468C0.086,-0.469 0.091,-0.47 0.094,-0.471C0.097,-0.472 0.101,-0.473 0.106,-0.473C0.1,-0.454 0.095,-0.432 0.092,-0.407C0.089,-0.382 0.087,-0.357 0.087,-0.332C0.088,-0.306 0.09,-0.281 0.095,-0.257C0.099,-0.233 0.105,-0.212 0.114,-0.194C0.127,-0.203 0.139,-0.213 0.152,-0.226C0.164,-0.239 0.175,-0.252 0.186,-0.266C0.197,-0.279 0.206,-0.292 0.215,-0.305C0.223,-0.318 0.229,-0.328 0.233,-0.337C0.237,-0.35 0.239,-0.366 0.241,-0.383C0.242,-0.4 0.242,-0.415 0.242,-0.428C0.241,-0.434 0.242,-0.439 0.244,-0.442C0.245,-0.445 0.247,-0.449 0.249,-0.453C0.25,-0.455 0.251,-0.457 0.252,-0.459C0.252,-0.461 0.253,-0.463 0.255,-0.464C0.256,-0.465 0.258,-0.467 0.26,-0.469C0.261,-0.472 0.263,-0.473 0.265,-0.473C0.269,-0.473 0.272,-0.471 0.273,-0.467C0.274,-0.463 0.276,-0.46 0.279,-0.458C0.282,-0.455 0.285,-0.452 0.289,-0.451C0.292,-0.449 0.293,-0.445 0.293,-0.439Z" style="fill:rgb(89,89,89);fill-rule:nonzero;"/>
        </g>
        <g transform="matrix(150,0,0,150,493,813)">
            <path d="M0.233,-0.72C0.233,-0.677 0.237,-0.637 0.245,-0.601C0.253,-0.564 0.26,-0.526 0.265,-0.487C0.27,-0.448 0.274,-0.409 0.276,-0.371C0.278,-0.332 0.281,-0.297 0.284,-0.264C0.282,-0.26 0.281,-0.255 0.281,-0.25C0.282,-0.245 0.28,-0.24 0.277,-0.237C0.267,-0.228 0.256,-0.219 0.243,-0.21C0.23,-0.201 0.216,-0.193 0.201,-0.186C0.196,-0.183 0.19,-0.182 0.185,-0.183C0.18,-0.183 0.174,-0.182 0.169,-0.181C0.163,-0.18 0.157,-0.178 0.151,-0.176C0.144,-0.174 0.138,-0.174 0.131,-0.175C0.124,-0.177 0.115,-0.18 0.105,-0.185C0.095,-0.189 0.085,-0.194 0.075,-0.2C0.065,-0.206 0.056,-0.213 0.048,-0.22C0.039,-0.227 0.033,-0.235 0.029,-0.244C0.022,-0.282 0.023,-0.316 0.034,-0.347C0.044,-0.378 0.059,-0.405 0.08,-0.43C0.083,-0.433 0.086,-0.436 0.09,-0.438C0.094,-0.439 0.098,-0.441 0.101,-0.444C0.104,-0.447 0.108,-0.449 0.112,-0.451C0.116,-0.452 0.121,-0.453 0.126,-0.452C0.139,-0.451 0.154,-0.448 0.17,-0.443C0.186,-0.438 0.198,-0.434 0.207,-0.433L0.207,-0.448C0.207,-0.465 0.206,-0.483 0.203,-0.5C0.201,-0.518 0.199,-0.536 0.197,-0.554C0.195,-0.572 0.194,-0.591 0.193,-0.61C0.192,-0.628 0.192,-0.648 0.195,-0.668C0.196,-0.673 0.197,-0.679 0.199,-0.684C0.201,-0.689 0.203,-0.695 0.204,-0.7C0.205,-0.703 0.207,-0.707 0.21,-0.712C0.213,-0.716 0.216,-0.719 0.219,-0.72C0.222,-0.721 0.224,-0.724 0.225,-0.727C0.226,-0.73 0.227,-0.731 0.23,-0.73C0.233,-0.729 0.234,-0.728 0.234,-0.727C0.233,-0.726 0.233,-0.723 0.233,-0.72ZM0.227,-0.254C0.228,-0.261 0.228,-0.272 0.228,-0.285C0.227,-0.299 0.225,-0.313 0.221,-0.328C0.217,-0.343 0.211,-0.357 0.202,-0.37C0.193,-0.383 0.18,-0.393 0.164,-0.4C0.157,-0.399 0.148,-0.398 0.139,-0.397C0.129,-0.395 0.119,-0.392 0.11,-0.388C0.101,-0.384 0.092,-0.379 0.084,-0.372C0.076,-0.365 0.07,-0.356 0.065,-0.345C0.061,-0.333 0.061,-0.318 0.065,-0.299C0.069,-0.28 0.08,-0.261 0.097,-0.244C0.107,-0.238 0.118,-0.234 0.129,-0.234C0.14,-0.233 0.152,-0.233 0.164,-0.234C0.175,-0.235 0.187,-0.238 0.198,-0.242C0.209,-0.246 0.218,-0.25 0.227,-0.254Z" style="fill:rgb(89,89,89);fill-rule:nonzero;"/>
        </g>
        <g transform="matrix(150,0,0,150,540.85,813)">
            <path d="M0.159,-0.499C0.164,-0.494 0.167,-0.489 0.166,-0.486C0.165,-0.483 0.162,-0.481 0.159,-0.482C0.15,-0.482 0.141,-0.481 0.131,-0.48C0.12,-0.478 0.109,-0.476 0.098,-0.475C0.086,-0.474 0.074,-0.474 0.061,-0.475C0.048,-0.476 0.036,-0.478 0.023,-0.482C0.018,-0.487 0.018,-0.492 0.024,-0.497C0.029,-0.501 0.034,-0.507 0.037,-0.516C0.039,-0.522 0.042,-0.526 0.046,-0.529C0.049,-0.531 0.053,-0.532 0.057,-0.533C0.064,-0.533 0.074,-0.532 0.085,-0.529C0.096,-0.526 0.105,-0.524 0.112,-0.523C0.123,-0.522 0.133,-0.52 0.14,-0.518C0.147,-0.515 0.154,-0.509 0.159,-0.499ZM0.138,-0.363C0.142,-0.348 0.145,-0.334 0.148,-0.321C0.15,-0.308 0.152,-0.296 0.153,-0.284C0.154,-0.273 0.154,-0.261 0.155,-0.249C0.155,-0.237 0.155,-0.224 0.155,-0.21C0.155,-0.207 0.154,-0.204 0.151,-0.202C0.148,-0.199 0.145,-0.195 0.144,-0.192C0.141,-0.186 0.139,-0.182 0.138,-0.181C0.136,-0.18 0.133,-0.178 0.129,-0.176C0.12,-0.172 0.111,-0.166 0.104,-0.159C0.095,-0.172 0.09,-0.186 0.086,-0.203C0.084,-0.22 0.082,-0.237 0.081,-0.255C0.08,-0.273 0.079,-0.291 0.078,-0.31C0.077,-0.328 0.074,-0.346 0.07,-0.363C0.068,-0.372 0.069,-0.379 0.072,-0.382C0.075,-0.385 0.079,-0.388 0.083,-0.389C0.088,-0.39 0.093,-0.389 0.099,-0.386C0.104,-0.383 0.11,-0.379 0.115,-0.376C0.12,-0.373 0.124,-0.372 0.129,-0.372C0.133,-0.371 0.136,-0.368 0.138,-0.363Z" style="fill:rgb(89,89,89);fill-rule:nonzero;"/>
        </g>
        <g transform="matrix(150,0,0,150,572.5,813)">
            <path d="M0.165,-0.459L0.148,-0.442C0.153,-0.443 0.162,-0.444 0.172,-0.447C0.184,-0.449 0.194,-0.45 0.205,-0.45C0.213,-0.449 0.22,-0.446 0.225,-0.442C0.23,-0.438 0.234,-0.43 0.235,-0.419C0.238,-0.403 0.242,-0.387 0.248,-0.371C0.253,-0.354 0.258,-0.338 0.261,-0.322C0.264,-0.306 0.263,-0.291 0.26,-0.277C0.257,-0.262 0.248,-0.249 0.233,-0.238C0.218,-0.215 0.201,-0.195 0.183,-0.18C0.164,-0.164 0.145,-0.155 0.125,-0.152C0.112,-0.15 0.097,-0.152 0.081,-0.158C0.065,-0.163 0.053,-0.173 0.046,-0.187C0.044,-0.186 0.042,-0.186 0.041,-0.187C0.04,-0.188 0.038,-0.189 0.037,-0.19C0.036,-0.191 0.035,-0.192 0.034,-0.191C0.033,-0.19 0.032,-0.191 0.031,-0.192C0.03,-0.194 0.03,-0.197 0.03,-0.2L0.03,-0.204C0.031,-0.227 0.033,-0.251 0.037,-0.275C0.04,-0.298 0.046,-0.321 0.054,-0.344C0.061,-0.366 0.071,-0.387 0.084,-0.406C0.096,-0.426 0.112,-0.444 0.131,-0.459C0.138,-0.463 0.145,-0.464 0.153,-0.463L0.158,-0.463C0.16,-0.463 0.162,-0.462 0.165,-0.459ZM0.131,-0.391C0.127,-0.392 0.125,-0.393 0.124,-0.395C0.123,-0.397 0.124,-0.4 0.125,-0.403C0.126,-0.406 0.127,-0.409 0.129,-0.413C0.13,-0.417 0.131,-0.421 0.131,-0.425C0.117,-0.412 0.106,-0.397 0.099,-0.379C0.091,-0.361 0.085,-0.343 0.082,-0.324C0.079,-0.305 0.077,-0.286 0.078,-0.268C0.078,-0.25 0.079,-0.234 0.08,-0.221C0.081,-0.21 0.084,-0.201 0.087,-0.194C0.09,-0.187 0.095,-0.182 0.102,-0.181C0.109,-0.179 0.119,-0.181 0.131,-0.187C0.148,-0.196 0.162,-0.208 0.173,-0.223C0.184,-0.238 0.192,-0.255 0.199,-0.272C0.202,-0.281 0.204,-0.293 0.205,-0.306C0.207,-0.319 0.207,-0.331 0.204,-0.342C0.201,-0.357 0.192,-0.369 0.179,-0.376C0.165,-0.383 0.149,-0.388 0.131,-0.391Z" style="fill:rgb(89,89,89);fill-rule:nonzero;"/>
        </g>
    </g>
    <g transform="matrix(1,0,0,1,215.102,-608.492)">
        <g transform="matrix(150,0,0,150,310,813)">
            <path d="M0.385,-0.563C0.384,-0.56 0.384,-0.558 0.385,-0.557C0.386,-0.556 0.386,-0.554 0.385,-0.553C0.383,-0.552 0.38,-0.551 0.375,-0.551C0.37,-0.55 0.365,-0.55 0.362,-0.549C0.357,-0.548 0.353,-0.547 0.348,-0.548C0.343,-0.548 0.338,-0.55 0.333,-0.553C0.325,-0.557 0.315,-0.561 0.304,-0.565C0.292,-0.568 0.279,-0.57 0.266,-0.57C0.249,-0.57 0.23,-0.568 0.211,-0.565C0.192,-0.561 0.173,-0.556 0.156,-0.55C0.138,-0.543 0.122,-0.535 0.109,-0.526C0.095,-0.517 0.085,-0.506 0.079,-0.495C0.075,-0.486 0.073,-0.477 0.074,-0.468C0.075,-0.458 0.077,-0.449 0.081,-0.44C0.085,-0.431 0.09,-0.424 0.096,-0.417C0.101,-0.409 0.107,-0.405 0.112,-0.402C0.129,-0.393 0.147,-0.388 0.168,-0.385C0.188,-0.382 0.209,-0.381 0.231,-0.38C0.252,-0.379 0.274,-0.378 0.295,-0.377C0.316,-0.376 0.336,-0.372 0.354,-0.367C0.363,-0.364 0.372,-0.361 0.381,-0.359C0.389,-0.357 0.396,-0.354 0.403,-0.35C0.41,-0.347 0.416,-0.342 0.422,-0.336C0.427,-0.329 0.432,-0.32 0.436,-0.308C0.442,-0.283 0.441,-0.258 0.432,-0.234C0.423,-0.209 0.409,-0.188 0.389,-0.169C0.369,-0.15 0.346,-0.134 0.321,-0.123C0.301,-0.114 0.281,-0.109 0.26,-0.106C0.238,-0.102 0.218,-0.103 0.199,-0.107C0.179,-0.111 0.161,-0.119 0.145,-0.13C0.128,-0.141 0.115,-0.157 0.105,-0.177C0.099,-0.19 0.096,-0.205 0.096,-0.223C0.095,-0.225 0.095,-0.227 0.096,-0.229C0.097,-0.234 0.102,-0.236 0.109,-0.236C0.112,-0.237 0.115,-0.236 0.119,-0.234C0.124,-0.231 0.127,-0.229 0.129,-0.228C0.134,-0.227 0.14,-0.224 0.145,-0.218C0.15,-0.211 0.154,-0.206 0.159,-0.202C0.176,-0.185 0.195,-0.174 0.216,-0.171C0.236,-0.167 0.257,-0.167 0.277,-0.171C0.296,-0.174 0.314,-0.18 0.331,-0.188C0.348,-0.196 0.36,-0.203 0.368,-0.21C0.373,-0.214 0.378,-0.219 0.384,-0.225C0.389,-0.23 0.395,-0.236 0.4,-0.244C0.405,-0.251 0.41,-0.258 0.413,-0.266C0.417,-0.274 0.419,-0.282 0.419,-0.291C0.417,-0.299 0.412,-0.305 0.403,-0.31C0.394,-0.314 0.383,-0.317 0.37,-0.32C0.347,-0.324 0.324,-0.326 0.301,-0.327C0.278,-0.327 0.256,-0.327 0.234,-0.326C0.212,-0.325 0.19,-0.325 0.169,-0.325C0.148,-0.325 0.127,-0.327 0.107,-0.332C0.101,-0.333 0.095,-0.336 0.09,-0.339C0.084,-0.342 0.078,-0.345 0.073,-0.348C0.068,-0.351 0.064,-0.356 0.061,-0.361C0.058,-0.366 0.055,-0.372 0.052,-0.378C0.049,-0.384 0.046,-0.39 0.043,-0.397C0.04,-0.403 0.037,-0.41 0.036,-0.417C0.033,-0.438 0.033,-0.46 0.037,-0.483C0.04,-0.506 0.049,-0.527 0.062,-0.546C0.073,-0.562 0.087,-0.576 0.106,-0.588C0.124,-0.599 0.145,-0.608 0.168,-0.615C0.191,-0.621 0.215,-0.624 0.241,-0.624C0.267,-0.623 0.294,-0.619 0.321,-0.611L0.345,-0.6C0.354,-0.595 0.363,-0.59 0.37,-0.583C0.377,-0.576 0.382,-0.57 0.385,-0.563Z" style="fill:rgb(89,89,89);fill-rule:nonzero;"/>
        </g>
        <g transform="matrix(150,0,0,150,380.5,813)">
            <path d="M0.312,-0.442C0.319,-0.425 0.323,-0.408 0.324,-0.392C0.324,-0.376 0.32,-0.359 0.312,-0.34C0.304,-0.326 0.293,-0.314 0.279,-0.303C0.265,-0.292 0.25,-0.282 0.234,-0.274C0.219,-0.266 0.204,-0.259 0.189,-0.254C0.174,-0.249 0.163,-0.244 0.154,-0.241C0.157,-0.221 0.159,-0.199 0.162,-0.175C0.165,-0.152 0.167,-0.128 0.169,-0.103C0.17,-0.079 0.172,-0.055 0.173,-0.032C0.174,-0.008 0.175,0.014 0.176,0.034C0.176,0.038 0.175,0.04 0.173,0.041C0.171,0.042 0.169,0.044 0.166,0.047C0.164,0.049 0.162,0.052 0.161,0.055C0.159,0.058 0.157,0.061 0.154,0.062C0.152,0.063 0.15,0.065 0.148,0.066C0.146,0.067 0.144,0.068 0.142,0.068C0.132,0.034 0.123,-0.004 0.115,-0.045C0.107,-0.086 0.1,-0.128 0.095,-0.172C0.089,-0.215 0.084,-0.259 0.081,-0.303C0.078,-0.346 0.075,-0.387 0.074,-0.425C0.065,-0.424 0.055,-0.421 0.046,-0.417C0.037,-0.412 0.028,-0.408 0.021,-0.404C0.02,-0.403 0.018,-0.402 0.017,-0.403C0.016,-0.404 0.014,-0.403 0.013,-0.402C0.011,-0.401 0.009,-0.4 0.007,-0.399C0.005,-0.398 0.003,-0.398 0.001,-0.399C-0.003,-0.401 -0.007,-0.404 -0.011,-0.408C-0.004,-0.43 0.008,-0.447 0.024,-0.46C0.04,-0.473 0.058,-0.482 0.077,-0.487C0.088,-0.49 0.106,-0.492 0.129,-0.494C0.152,-0.495 0.177,-0.495 0.202,-0.493C0.227,-0.49 0.25,-0.485 0.271,-0.477C0.292,-0.47 0.306,-0.458 0.312,-0.442ZM0.275,-0.406C0.273,-0.419 0.266,-0.428 0.255,-0.435C0.244,-0.442 0.23,-0.446 0.215,-0.448C0.2,-0.45 0.184,-0.45 0.168,-0.449C0.151,-0.447 0.137,-0.444 0.124,-0.44C0.126,-0.431 0.128,-0.421 0.13,-0.408C0.132,-0.395 0.134,-0.382 0.136,-0.369C0.138,-0.356 0.14,-0.342 0.141,-0.329C0.143,-0.316 0.144,-0.304 0.145,-0.295C0.158,-0.298 0.172,-0.303 0.187,-0.31C0.202,-0.316 0.217,-0.324 0.23,-0.333C0.243,-0.342 0.253,-0.353 0.262,-0.366C0.271,-0.378 0.275,-0.391 0.275,-0.406Z" style="fill:rgb(89,89,89);fill-rule:nonzero;"/>
        </g>
        <g transform="matrix(150,0,0,150,433,813)">
            <path d="M0.159,-0.499C0.164,-0.494 0.167,-0.489 0.166,-0.486C0.165,-0.483 0.162,-0.481 0.159,-0.482C0.15,-0.482 0.141,-0.481 0.131,-0.48C0.12,-0.478 0.109,-0.476 0.098,-0.475C0.086,-0.474 0.074,-0.474 0.061,-0.475C0.048,-0.476 0.036,-0.478 0.023,-0.482C0.018,-0.487 0.018,-0.492 0.024,-0.497C0.029,-0.501 0.034,-0.507 0.037,-0.516C0.039,-0.522 0.042,-0.526 0.046,-0.529C0.049,-0.531 0.053,-0.532 0.057,-0.533C0.064,-0.533 0.074,-0.532 0.085,-0.529C0.096,-0.526 0.105,-0.524 0.112,-0.523C0.123,-0.522 0.133,-0.52 0.14,-0.518C0.147,-0.515 0.154,-0.509 0.159,-0.499ZM0.138,-0.363C0.142,-0.348 0.145,-0.334 0.148,-0.321C0.15,-0.308 0.152,-0.296 0.153,-0.284C0.154,-0.273 0.154,-0.261 0.155,-0.249C0.155,-0.237 0.155,-0.224 0.155,-0.21C0.155,-0.207 0.154,-0.204 0.151,-0.202C0.148,-0.199 0.145,-0.195 0.144,-0.192C0.141,-0.186 0.139,-0.182 0.138,-0.181C0.136,-0.18 0.133,-0.178 0.129,-0.176C0.12,-0.172 0.111,-0.166 0.104,-0.159C0.095,-0.172 0.09,-0.186 0.086,-0.203C0.084,-0.22 0.082,-0.237 0.081,-0.255C0.08,-0.273 0.079,-0.291 0.078,-0.31C0.077,-0.328 0.074,-0.346 0.07,-0.363C0.068,-0.372 0.069,-0.379 0.072,-0.382C0.075,-0.385 0.079,-0.388 0.083,-0.389C0.088,-0.39 0.093,-0.389 0.099,-0.386C0.104,-0.383 0.11,-0.379 0.115,-0.376C0.12,-0.373 0.124,-0.372 0.129,-0.372C0.133,-0.371 0.136,-0.368 0.138,-0.363Z" style="fill:rgb(89,89,89);fill-rule:nonzero;"/>
        </g>
        <g transform="matrix(150,0,0,150,464.65,813)">
            <path d="M0.26,-0.478C0.265,-0.473 0.269,-0.468 0.273,-0.463C0.277,-0.457 0.28,-0.451 0.283,-0.445C0.288,-0.432 0.291,-0.42 0.292,-0.407C0.292,-0.395 0.287,-0.38 0.277,-0.363C0.266,-0.344 0.251,-0.329 0.234,-0.316C0.216,-0.303 0.197,-0.295 0.176,-0.292C0.161,-0.289 0.147,-0.29 0.132,-0.293C0.117,-0.296 0.103,-0.302 0.09,-0.312C0.086,-0.309 0.083,-0.304 0.081,-0.298C0.078,-0.291 0.077,-0.285 0.078,-0.28C0.079,-0.271 0.083,-0.261 0.089,-0.25C0.094,-0.238 0.1,-0.231 0.107,-0.227C0.118,-0.222 0.134,-0.222 0.155,-0.226C0.175,-0.23 0.197,-0.236 0.22,-0.245C0.243,-0.253 0.265,-0.262 0.288,-0.273C0.31,-0.283 0.329,-0.292 0.345,-0.299C0.345,-0.295 0.344,-0.292 0.343,-0.291C0.341,-0.29 0.339,-0.287 0.336,-0.284C0.333,-0.281 0.329,-0.277 0.325,-0.272C0.321,-0.267 0.316,-0.263 0.311,-0.26C0.304,-0.256 0.299,-0.251 0.296,-0.245C0.293,-0.238 0.286,-0.232 0.277,-0.227C0.264,-0.22 0.252,-0.214 0.238,-0.206C0.226,-0.2 0.213,-0.193 0.2,-0.188C0.187,-0.182 0.174,-0.178 0.162,-0.174C0.149,-0.172 0.136,-0.171 0.123,-0.172C0.114,-0.173 0.107,-0.176 0.102,-0.179C0.096,-0.182 0.089,-0.187 0.081,-0.194C0.077,-0.197 0.072,-0.201 0.067,-0.204C0.062,-0.207 0.058,-0.211 0.055,-0.214C0.044,-0.231 0.036,-0.249 0.032,-0.268C0.028,-0.286 0.027,-0.306 0.029,-0.325C0.032,-0.344 0.037,-0.362 0.044,-0.381C0.051,-0.399 0.061,-0.416 0.073,-0.431C0.08,-0.44 0.088,-0.449 0.098,-0.458C0.107,-0.467 0.118,-0.474 0.13,-0.482C0.141,-0.489 0.154,-0.494 0.167,-0.498C0.18,-0.502 0.193,-0.504 0.206,-0.503C0.211,-0.502 0.216,-0.501 0.221,-0.499C0.225,-0.496 0.23,-0.494 0.235,-0.491C0.238,-0.49 0.243,-0.488 0.248,-0.486C0.253,-0.483 0.257,-0.481 0.26,-0.478ZM0.231,-0.419C0.23,-0.425 0.226,-0.43 0.22,-0.435C0.214,-0.44 0.207,-0.444 0.2,-0.447C0.193,-0.45 0.185,-0.451 0.178,-0.452C0.171,-0.453 0.165,-0.452 0.162,-0.451C0.157,-0.449 0.151,-0.446 0.143,-0.441C0.137,-0.436 0.13,-0.43 0.124,-0.423C0.117,-0.416 0.111,-0.409 0.106,-0.402C0.1,-0.394 0.096,-0.387 0.093,-0.38C0.092,-0.378 0.091,-0.375 0.09,-0.371C0.089,-0.366 0.089,-0.363 0.09,-0.361C0.098,-0.351 0.11,-0.346 0.126,-0.346C0.141,-0.346 0.158,-0.35 0.175,-0.357C0.193,-0.364 0.206,-0.372 0.213,-0.38C0.214,-0.381 0.215,-0.384 0.218,-0.387C0.22,-0.39 0.222,-0.394 0.224,-0.398C0.226,-0.402 0.228,-0.406 0.23,-0.41C0.231,-0.414 0.232,-0.417 0.231,-0.419Z" style="fill:rgb(89,89,89);fill-rule:nonzero;"/>
        </g>
        <g transform="matrix(150,0,0,150,514.15,813)">
            <path d="M0.111,-0.646C0.119,-0.61 0.125,-0.574 0.13,-0.538C0.135,-0.502 0.139,-0.466 0.143,-0.43C0.147,-0.394 0.151,-0.358 0.156,-0.322C0.16,-0.286 0.166,-0.25 0.173,-0.214C0.172,-0.205 0.171,-0.198 0.17,-0.193C0.169,-0.188 0.168,-0.184 0.165,-0.183C0.162,-0.181 0.159,-0.179 0.156,-0.177C0.153,-0.174 0.149,-0.172 0.146,-0.171C0.145,-0.17 0.143,-0.169 0.142,-0.168C0.141,-0.166 0.139,-0.165 0.138,-0.164C0.136,-0.163 0.134,-0.163 0.133,-0.164C0.132,-0.165 0.13,-0.167 0.128,-0.17C0.115,-0.208 0.104,-0.246 0.094,-0.285C0.083,-0.324 0.075,-0.363 0.069,-0.402C0.062,-0.441 0.058,-0.481 0.057,-0.522C0.055,-0.562 0.056,-0.603 0.06,-0.646C0.06,-0.656 0.063,-0.662 0.069,-0.665C0.072,-0.666 0.075,-0.665 0.08,-0.662C0.084,-0.659 0.088,-0.656 0.091,-0.655C0.096,-0.653 0.099,-0.652 0.102,-0.652C0.105,-0.651 0.108,-0.649 0.111,-0.646Z" style="fill:rgb(89,89,89);fill-rule:nonzero;"/>
        </g>
        <g transform="matrix(150,0,0,150,547.3,813)">
            <path d="M0.345,-0.493C0.345,-0.487 0.346,-0.48 0.348,-0.47C0.35,-0.462 0.349,-0.454 0.346,-0.449C0.345,-0.448 0.344,-0.445 0.344,-0.442C0.344,-0.438 0.343,-0.435 0.341,-0.434L0.328,-0.442C0.317,-0.447 0.306,-0.45 0.293,-0.449C0.28,-0.448 0.266,-0.445 0.253,-0.44C0.244,-0.436 0.234,-0.431 0.226,-0.424C0.217,-0.417 0.208,-0.409 0.2,-0.4C0.192,-0.391 0.185,-0.382 0.178,-0.373C0.171,-0.364 0.166,-0.355 0.161,-0.346C0.15,-0.327 0.145,-0.303 0.146,-0.276C0.146,-0.249 0.156,-0.213 0.175,-0.17C0.175,-0.165 0.172,-0.16 0.165,-0.153L0.155,-0.141C0.15,-0.136 0.147,-0.132 0.146,-0.129C0.145,-0.126 0.142,-0.123 0.139,-0.122C0.134,-0.12 0.129,-0.125 0.124,-0.136C0.113,-0.156 0.102,-0.181 0.092,-0.21C0.081,-0.238 0.071,-0.268 0.063,-0.299C0.054,-0.33 0.046,-0.359 0.039,-0.388C0.032,-0.416 0.026,-0.44 0.022,-0.459C0.02,-0.464 0.02,-0.469 0.021,-0.474C0.022,-0.48 0.024,-0.484 0.027,-0.487C0.029,-0.49 0.032,-0.49 0.035,-0.489C0.038,-0.488 0.04,-0.487 0.042,-0.487C0.051,-0.487 0.056,-0.485 0.058,-0.482C0.06,-0.479 0.063,-0.474 0.068,-0.469C0.077,-0.458 0.085,-0.444 0.09,-0.426C0.095,-0.408 0.102,-0.387 0.11,-0.362C0.121,-0.38 0.135,-0.397 0.152,-0.414C0.169,-0.431 0.187,-0.446 0.207,-0.46C0.227,-0.473 0.248,-0.484 0.269,-0.493C0.29,-0.502 0.311,-0.507 0.331,-0.509C0.335,-0.51 0.339,-0.508 0.342,-0.505C0.344,-0.502 0.346,-0.498 0.345,-0.493Z" style="fill:rgb(89,89,89);fill-rule:nonzero;"/>
        </g>
        <g transform="matrix(150,0,0,150,601.3,813)">
            <path d="M0.284,-0.465C0.293,-0.444 0.301,-0.421 0.309,-0.396C0.316,-0.371 0.322,-0.347 0.325,-0.323C0.328,-0.298 0.328,-0.275 0.325,-0.252C0.322,-0.229 0.314,-0.21 0.301,-0.193C0.296,-0.186 0.289,-0.184 0.282,-0.185C0.279,-0.186 0.277,-0.187 0.275,-0.19C0.273,-0.193 0.27,-0.195 0.267,-0.197C0.264,-0.199 0.262,-0.201 0.259,-0.202C0.256,-0.203 0.253,-0.206 0.25,-0.21C0.24,-0.207 0.23,-0.202 0.221,-0.196C0.211,-0.189 0.201,-0.183 0.191,-0.176C0.181,-0.169 0.171,-0.163 0.16,-0.157C0.149,-0.15 0.138,-0.146 0.127,-0.143C0.115,-0.14 0.106,-0.14 0.101,-0.145C0.095,-0.149 0.089,-0.154 0.082,-0.159C0.077,-0.163 0.074,-0.166 0.073,-0.167C0.072,-0.168 0.07,-0.172 0.069,-0.179C0.067,-0.194 0.067,-0.21 0.069,-0.227C0.07,-0.244 0.074,-0.261 0.08,-0.278C0.097,-0.329 0.131,-0.363 0.182,-0.38C0.188,-0.382 0.194,-0.383 0.201,-0.382C0.207,-0.381 0.213,-0.379 0.219,-0.376C0.225,-0.373 0.231,-0.37 0.236,-0.366C0.242,-0.362 0.247,-0.358 0.252,-0.354L0.268,-0.341C0.271,-0.352 0.271,-0.365 0.268,-0.378C0.264,-0.391 0.258,-0.403 0.251,-0.414C0.244,-0.426 0.235,-0.437 0.226,-0.446C0.217,-0.455 0.208,-0.462 0.199,-0.465C0.165,-0.465 0.135,-0.457 0.108,-0.442C0.081,-0.426 0.054,-0.405 0.029,-0.38C0.028,-0.379 0.026,-0.378 0.025,-0.377C0.023,-0.376 0.021,-0.376 0.02,-0.375C0.018,-0.374 0.016,-0.373 0.013,-0.374C0.011,-0.375 0.011,-0.377 0.012,-0.38C0.016,-0.401 0.024,-0.421 0.036,-0.438C0.048,-0.455 0.062,-0.469 0.078,-0.482C0.094,-0.495 0.111,-0.505 0.129,-0.514C0.147,-0.523 0.165,-0.529 0.182,-0.533C0.185,-0.534 0.187,-0.535 0.19,-0.536C0.192,-0.536 0.195,-0.536 0.198,-0.536C0.203,-0.536 0.207,-0.535 0.211,-0.532C0.215,-0.529 0.22,-0.526 0.225,-0.523C0.232,-0.52 0.238,-0.516 0.245,-0.511C0.252,-0.507 0.258,-0.502 0.263,-0.496C0.268,-0.491 0.272,-0.485 0.275,-0.48C0.278,-0.475 0.281,-0.47 0.284,-0.465ZM0.25,-0.287C0.246,-0.296 0.24,-0.304 0.232,-0.311C0.223,-0.318 0.214,-0.324 0.203,-0.328C0.192,-0.331 0.181,-0.332 0.169,-0.33C0.156,-0.328 0.144,-0.322 0.131,-0.312C0.127,-0.303 0.123,-0.294 0.119,-0.283C0.115,-0.273 0.112,-0.263 0.11,-0.253C0.108,-0.242 0.107,-0.232 0.108,-0.222C0.108,-0.211 0.11,-0.202 0.114,-0.193C0.139,-0.202 0.164,-0.212 0.188,-0.223C0.212,-0.234 0.233,-0.244 0.25,-0.253C0.254,-0.257 0.256,-0.26 0.257,-0.263C0.258,-0.266 0.258,-0.268 0.257,-0.27C0.256,-0.272 0.254,-0.274 0.253,-0.277C0.251,-0.28 0.25,-0.283 0.25,-0.287Z" style="fill:rgb(89,89,89);fill-rule:nonzero;"/>
        </g>
        <g transform="matrix(150,0,0,150,655.3,813)">
            <path d="M0.293,-0.439C0.293,-0.392 0.294,-0.349 0.295,-0.309C0.296,-0.269 0.299,-0.23 0.306,-0.191C0.307,-0.187 0.306,-0.183 0.303,-0.178C0.3,-0.173 0.298,-0.169 0.295,-0.166C0.291,-0.161 0.287,-0.157 0.284,-0.153C0.281,-0.148 0.277,-0.145 0.274,-0.144C0.267,-0.141 0.263,-0.14 0.262,-0.142C0.261,-0.144 0.26,-0.147 0.259,-0.15C0.256,-0.163 0.253,-0.18 0.249,-0.202C0.244,-0.223 0.241,-0.245 0.24,-0.267C0.232,-0.254 0.223,-0.24 0.214,-0.227C0.204,-0.213 0.194,-0.2 0.183,-0.189C0.172,-0.178 0.16,-0.168 0.149,-0.159C0.138,-0.15 0.127,-0.143 0.116,-0.139C0.111,-0.137 0.108,-0.137 0.107,-0.138C0.105,-0.139 0.102,-0.141 0.098,-0.142C0.092,-0.145 0.086,-0.147 0.081,-0.15C0.075,-0.152 0.07,-0.155 0.067,-0.16C0.06,-0.173 0.054,-0.185 0.049,-0.197C0.042,-0.216 0.037,-0.237 0.035,-0.258C0.034,-0.279 0.034,-0.301 0.035,-0.322C0.036,-0.343 0.039,-0.364 0.042,-0.384C0.045,-0.404 0.049,-0.422 0.052,-0.439C0.053,-0.442 0.054,-0.445 0.057,-0.446C0.06,-0.447 0.061,-0.449 0.062,-0.452C0.063,-0.457 0.066,-0.461 0.07,-0.463C0.073,-0.465 0.077,-0.467 0.081,-0.468C0.086,-0.469 0.091,-0.47 0.094,-0.471C0.097,-0.472 0.101,-0.473 0.106,-0.473C0.1,-0.454 0.095,-0.432 0.092,-0.407C0.089,-0.382 0.087,-0.357 0.087,-0.332C0.088,-0.306 0.09,-0.281 0.095,-0.257C0.099,-0.233 0.105,-0.212 0.114,-0.194C0.127,-0.203 0.139,-0.213 0.152,-0.226C0.164,-0.239 0.175,-0.252 0.186,-0.266C0.197,-0.279 0.206,-0.292 0.215,-0.305C0.223,-0.318 0.229,-0.328 0.233,-0.337C0.237,-0.35 0.239,-0.366 0.241,-0.383C0.242,-0.4 0.242,-0.415 0.242,-0.428C0.241,-0.434 0.242,-0.439 0.244,-0.442C0.245,-0.445 0.247,-0.449 0.249,-0.453C0.25,-0.455 0.251,-0.457 0.252,-0.459C0.252,-0.461 0.253,-0.463 0.255,-0.464C0.256,-0.465 0.258,-0.467 0.26,-0.469C0.261,-0.472 0.263,-0.473 0.265,-0.473C0.269,-0.473 0.272,-0.471 0.273,-0.467C0.274,-0.463 0.276,-0.46 0.279,-0.458C0.282,-0.455 0.285,-0.452 0.289,-0.451C0.292,-0.449 0.293,-0.445 0.293,-0.439Z" style="fill:rgb(89,89,89);fill-rule:nonzero;"/>
        </g>
        <g transform="matrix(150,0,0,150,706.3,813)">
            <path d="M0.065,-0.476C0.069,-0.459 0.071,-0.441 0.07,-0.422C0.069,-0.403 0.069,-0.385 0.068,-0.366C0.067,-0.346 0.067,-0.328 0.068,-0.309C0.069,-0.29 0.073,-0.272 0.082,-0.255C0.097,-0.293 0.118,-0.328 0.145,-0.359C0.172,-0.39 0.2,-0.417 0.23,-0.442C0.234,-0.445 0.238,-0.448 0.243,-0.449C0.247,-0.45 0.251,-0.451 0.255,-0.452C0.258,-0.453 0.262,-0.455 0.265,-0.456C0.268,-0.457 0.272,-0.456 0.277,-0.453C0.29,-0.446 0.298,-0.432 0.3,-0.411C0.302,-0.39 0.303,-0.361 0.303,-0.323C0.313,-0.333 0.323,-0.344 0.334,-0.357C0.344,-0.369 0.354,-0.381 0.365,-0.392C0.376,-0.403 0.387,-0.413 0.398,-0.422C0.409,-0.431 0.421,-0.437 0.434,-0.441C0.438,-0.442 0.442,-0.443 0.447,-0.442C0.451,-0.441 0.455,-0.44 0.459,-0.44C0.462,-0.44 0.464,-0.441 0.466,-0.442C0.468,-0.443 0.47,-0.443 0.473,-0.442C0.477,-0.441 0.481,-0.439 0.484,-0.436C0.487,-0.433 0.489,-0.429 0.49,-0.425C0.493,-0.415 0.496,-0.401 0.501,-0.384C0.506,-0.366 0.51,-0.348 0.514,-0.33C0.517,-0.311 0.52,-0.294 0.522,-0.278C0.524,-0.262 0.524,-0.251 0.522,-0.244C0.521,-0.238 0.519,-0.234 0.518,-0.232C0.516,-0.23 0.512,-0.226 0.507,-0.221C0.506,-0.221 0.504,-0.22 0.502,-0.218C0.501,-0.216 0.499,-0.214 0.497,-0.212C0.494,-0.209 0.492,-0.207 0.49,-0.204C0.481,-0.217 0.475,-0.23 0.47,-0.245C0.465,-0.26 0.461,-0.275 0.458,-0.291C0.455,-0.307 0.452,-0.323 0.449,-0.34C0.446,-0.357 0.443,-0.374 0.439,-0.391C0.42,-0.381 0.405,-0.37 0.394,-0.357C0.383,-0.344 0.374,-0.33 0.367,-0.316C0.36,-0.301 0.354,-0.287 0.349,-0.272C0.344,-0.257 0.337,-0.243 0.329,-0.23C0.322,-0.219 0.314,-0.21 0.307,-0.203C0.3,-0.196 0.294,-0.193 0.289,-0.194C0.285,-0.195 0.282,-0.198 0.28,-0.205C0.278,-0.212 0.275,-0.222 0.272,-0.235C0.265,-0.262 0.259,-0.292 0.254,-0.323C0.248,-0.354 0.242,-0.383 0.235,-0.408C0.222,-0.404 0.21,-0.397 0.198,-0.387C0.185,-0.376 0.174,-0.364 0.163,-0.35C0.152,-0.337 0.143,-0.322 0.135,-0.305C0.126,-0.288 0.12,-0.272 0.116,-0.255C0.125,-0.238 0.125,-0.223 0.117,-0.212C0.114,-0.207 0.109,-0.202 0.103,-0.199C0.097,-0.195 0.09,-0.191 0.082,-0.187C0.077,-0.182 0.072,-0.181 0.067,-0.182C0.062,-0.183 0.057,-0.187 0.054,-0.192C0.051,-0.197 0.049,-0.201 0.048,-0.204C0.044,-0.225 0.04,-0.248 0.036,-0.271C0.032,-0.294 0.029,-0.317 0.029,-0.34C0.028,-0.363 0.028,-0.387 0.031,-0.409C0.034,-0.433 0.039,-0.455 0.048,-0.476C0.049,-0.48 0.051,-0.482 0.052,-0.482C0.053,-0.482 0.055,-0.482 0.056,-0.481C0.057,-0.48 0.059,-0.479 0.06,-0.478C0.061,-0.477 0.062,-0.477 0.063,-0.477C0.063,-0.477 0.064,-0.477 0.065,-0.476Z" style="fill:rgb(89,89,89);fill-rule:nonzero;"/>
        </g>
    </g>
    <g transform="matrix(0.338662,0,0,0.338662,-212.529,-565.213)">
        <g transform="matrix(0.261416,-0.187557,0.188881,0.263262,1104.73,1827.71)">
            <path d="M1613,829.238C1613,819.724 1605.22,812 1595.64,812L1382.36,812C1372.78,812 1365,819.724 1365,829.238L1365,1178.76C1365,1188.28 1372.78,1196 1382.36,1196L1595.64,1196C1605.22,1196 1613,1188.28 1613,1178.76L1613,829.238Z" style="fill:rgb(77,77,77);"/>
        </g>
        <g transform="matrix(0.300262,-0.11558,0.116396,0.302382,1138.3,1681.55)">
            <path d="M1613,829.238C1613,819.724 1605.22,812 1595.64,812L1382.36,812C1372.78,812 1365,819.724 1365,829.238L1365,1178.76C1365,1188.28 1372.78,1196 1382.36,1196L1595.64,1196C1605.22,1196 1613,1188.28 1613,1178.76L1613,829.238Z" style="fill:white;"/>
        </g>
        <g transform="matrix(0.320272,-0.0306886,0.0309053,0.322533,1206.8,1539.05)">
            <path d="M1613,829.238C1613,819.724 1605.22,812 1595.64,812L1382.36,812C1372.78,812 1365,819.724 1365,829.238L1365,1178.76C1365,1188.28 1372.78,1196 1382.36,1196L1595.64,1196C1605.22,1196 1613,1188.28 1613,1178.76L1613,829.238Z" style="fill:rgb(89,89,89);"/>
        </g>
        <g transform="matrix(0.317661,0.0510603,-0.0514209,0.319904,1309.31,1429.58)">
            <path d="M1613,829.238C1613,819.724 1605.22,812 1595.64,812L1382.36,812C1372.78,812 1365,819.724 1365,829.238L1365,1178.76C1365,1188.28 1372.78,1196 1382.36,1196L1595.64,1196C1605.22,1196 1613,1188.28 1613,1178.76L1613,829.238Z" style="fill:rgb(235,235,235);"/>
        </g>
    </g>
    <g transform="matrix(0.338662,0,0,0.338662,191.359,-778.243)">
        <path d="M652.134,2392.29C655.122,2380.49 665.905,2370.35 675.21,2363.2C691.885,2350.38 706.155,2339.88 724.178,2330.46C766.705,2308.24 818.378,2292.29 866.75,2299.93C916.155,2307.74 956.065,2344.65 957.722,2396.24C957.963,2403.74 957.668,2411.29 956.706,2418.74C945.804,2503.1 868.573,2552.92 806.153,2599.36C794.046,2608.37 781.748,2617.14 770.036,2626.66C758.327,2636.17 746.887,2646.04 735.935,2656.42C701.192,2689.34 662.43,2735.56 672.119,2787.33C682.654,2843.62 750.104,2861.26 799.028,2855.96C822.993,2853.37 846.953,2846.1 867.541,2833.41C907.58,2808.73 937.646,2767.21 960.439,2726.98C947.709,2753.12 936.025,2773.77 920.321,2798.24C909.814,2814.61 897.967,2832.26 882.653,2844.83C835.922,2883.18 773.492,2896.06 715.799,2876.81C690.195,2868.26 665.852,2852.41 651.973,2828.67C638.139,2852.34 613.773,2868.45 588.148,2876.81C531.602,2895.25 461.875,2882.55 418.294,2840.83C384.812,2808.77 363.558,2768.15 343.508,2726.98C366.301,2767.21 396.367,2808.73 436.406,2833.41C456.994,2846.1 480.954,2853.37 504.918,2855.96C553.843,2861.26 621.294,2843.62 631.828,2787.33C641.52,2735.54 602.731,2689.37 568.012,2656.42C557.232,2646.19 545.975,2636.45 534.442,2627.08C522.555,2617.42 510.074,2608.52 497.794,2599.36C439.658,2556.02 373.896,2514.12 351.483,2440.8C347.616,2428.14 344.797,2409.51 345.225,2396.24C345.677,2382.22 349.214,2371.22 354.877,2358.53C358.5,2350.4 365.12,2340.04 371.331,2333.62C376.046,2328.76 381.027,2324.06 386.586,2320.18C439.795,2283.09 507.419,2302.73 562.229,2324.48C568.869,2327.12 575.249,2330.4 581.491,2333.87C601.758,2345.15 612.281,2352.77 630.736,2366.99C638.243,2372.77 650.825,2381.3 652.134,2392.29ZM651.973,2698.51C682.38,2637.45 738.411,2601.51 794.898,2567.45C843.4,2538.2 899.036,2509.58 923.571,2455.23C929.656,2441.75 932.104,2429.3 934.804,2414.22C941.518,2376.74 920.145,2337.89 883.954,2324.71C862.372,2316.85 838.549,2319.82 816.787,2325.33C760.768,2339.53 715.32,2376.21 683.35,2423.68C669.404,2444.39 658.029,2467.39 652.455,2491.84L652.373,2495.98C652.267,2495.45 652.159,2494.92 652.05,2494.39L651.973,2494.03C651.836,2494.68 651.702,2495.33 651.574,2495.98C651.547,2494.6 651.52,2493.23 651.494,2491.85C646.018,2467.83 634.961,2443.71 620.597,2423.69C587.953,2378.18 545.342,2339.08 489.486,2326.01C466.583,2320.65 441.508,2319.15 418.754,2326.18C413.259,2327.88 407.854,2330.01 402.817,2332.79C367.832,2352.06 356.993,2391.52 367.143,2428.22C381.719,2480.93 428.593,2521.12 473.37,2548.67C490.44,2559.18 508.288,2568.36 525.655,2578.36C576.956,2607.91 624.93,2644.2 651.973,2698.51Z" style="fill:rgb(89,89,89);fill-rule:nonzero;"/>
    </g>
    <g transform="matrix(0.250633,0,0,0.250633,-82.7192,-601.234)">
        <g transform="matrix(0.398075,0.00349663,-0.00349663,0.398075,1623.84,1989.39)">
            <path d="M1431,1443C1431,1443 1473.78,1478.47 1511.6,1567.11C1549.74,1656.51 1552,1740 1552,1740L1310.01,1740C1310,1740 1310,1740.01 1309.99,1740.01C1309.48,1740.29 1316.97,1645.62 1348.68,1569.04C1379.79,1493.92 1431,1443 1431,1443Z" style="fill:rgb(77,77,77);"/>
            <g transform="matrix(0.891965,0,0,0.479709,100.772,906.036)">
                <ellipse cx="1491.34" cy="1738.5" rx="135.661" ry="65.5" style="fill:rgb(77,77,77);"/>
            </g>
        </g>
        <g transform="matrix(0.313974,0.00275791,-0.00289062,0.329083,2057.52,2310.84)">
            <ellipse cx="420.5" cy="745.5" rx="106.5" ry="98.5" style="fill:rgb(77,77,77);"/>
        </g>
    </g>
    <g transform="matrix(0.261173,0.261173,-0.23947,0.23947,524.465,-998.398)">
        <g transform="matrix(1.2112,0,0,1.32208,932.795,1288.46)">
            <path d="M820,911.984C820,901.506 811.486,893 801,893L763,893C752.514,893 744,901.506 744,911.984L744,950.016C744,960.494 752.514,969 763,969L801,969C811.486,969 820,960.494 820,950.016L820,911.984Z" style="fill:rgb(77,77,77);"/>
        </g>
        <g transform="matrix(1.44403,0,0,1.44211,519.63,1163.19)">
            <ellipse cx="926.096" cy="925.64" rx="4.904" ry="5.36" style="fill:white;"/>
        </g>
        <g transform="matrix(1.44403,0,0,1.44211,519.63,1184.13)">
            <ellipse cx="926.096" cy="925.64" rx="4.904" ry="5.36" style="fill:white;"/>
        </g>
        <g transform="matrix(1.44403,0,0,1.44211,519.63,1205.7)">
            <ellipse cx="926.096" cy="925.64" rx="4.904" ry="5.36" style="fill:white;"/>
        </g>
        <g transform="matrix(1.44403,0,0,1.44211,565.656,1162.87)">
            <ellipse cx="926.096" cy="925.64" rx="4.904" ry="5.36" style="fill:white;"/>
        </g>
        <g transform="matrix(1.44403,0,0,1.44211,565.656,1183.81)">
            <ellipse cx="926.096" cy="925.64" rx="4.904" ry="5.36" style="fill:white;"/>
        </g>
        <g transform="matrix(1.44403,0,0,1.44211,542.643,1183.81)">
            <ellipse cx="926.096" cy="925.64" rx="4.904" ry="5.36" style="fill:white;"/>
        </g>
        <g transform="matrix(1.44403,0,0,1.44211,565.656,1205.38)">
            <ellipse cx="926.096" cy="925.64" rx="4.904" ry="5.36" style="fill:white;"/>
        </g>
    </g>
</svg>
